<svg version="1.1" xmlns="http://www.w3.org/2000/svg" xmlns:xlink="http://www.w3.org/1999/xlink" width="24" height="28" viewBox="0 0 24 28" aria-labelledby="title desc">
	<title id="title">Google Plus</title>
	<desc id="desc">A cut-out icon with the Google Plus logo</desc>
	<path fill="#000" d="M14.328 14.141q0-0.406-0.094-1h-5.656v2.063h3.391q-0.047 0.375-0.258 0.781t-0.586 0.828-1.039 0.695-1.508 0.273q-1.547 0-2.641-1.109t-1.094-2.672 1.094-2.672 2.641-1.109q1.437 0 2.391 0.922l1.625-1.578q-1.687-1.563-4.016-1.563-2.5 0-4.25 1.758t-1.75 4.242 1.75 4.242 4.25 1.758q2.578 0 4.164-1.641t1.586-4.219zM19.719 14.859h1.703v-1.719h-1.703v-1.719h-1.719v1.719h-1.719v1.719h1.719v1.719h1.719v-1.719zM24 6.5v15q0 1.859-1.32 3.18t-3.18 1.32h-15q-1.859 0-3.18-1.32t-1.32-3.18v-15q0-1.859 1.32-3.18t3.18-1.32h15q1.859 0 3.18 1.32t1.32 3.18z"></path>
</svg>
