<?xml version="1.0" standalone="no"?>
<!DOCTYPE svg PUBLIC "-//W3C//DTD SVG 1.1//EN" "http://www.w3.org/Graphics/SVG/1.1/DTD/svg11.dtd" >
<svg xmlns="http://www.w3.org/2000/svg">
<metadata></metadata>
<defs>
<font id="lulo_cleanone_bold" horiz-adv-x="2168" >
<font-face units-per-em="2048" ascent="1647" descent="-401" />
<missing-glyph horiz-adv-x="1046" />
<glyph horiz-adv-x="0" />
<glyph unicode="&#xd;" horiz-adv-x="681" />
<glyph unicode=" "  horiz-adv-x="1046" />
<glyph unicode="&#x09;" horiz-adv-x="1046" />
<glyph unicode="&#xa0;" horiz-adv-x="1046" />
<glyph unicode="!" horiz-adv-x="1132" d="M72 223q0 110 75 185t185 75q109 0 184 -75q76 -76 76 -185q0 -108 -76 -184t-184 -76q-109 0 -185 76q-75 75 -75 184zM102 1597h457l-92 -1015h-272z" />
<glyph unicode="&#x22;" horiz-adv-x="1529" d="M92 1597h397l-61 -712h-274zM569 1597h398l-62 -712h-274z" />
<glyph unicode="#" horiz-adv-x="2080" d="M80 332v350h262l39 231h-201v353h262l60 331h338l-60 -331h209l60 331h337l-59 -331h203v-353h-264l-39 -231h203v-350h-265l-57 -332h-338l57 332h-209l-57 -332h-338l58 332h-201zM680 682h209l39 231h-209z" />
<glyph unicode="$" horiz-adv-x="1701" d="M80 563v12l397 -8v-2q0 -49 37 -86t115 -37q98 0 98 58q0 20 -33 43q-39 27 -135 71q-4 4 -53 25q-26 11 -62 29q-28 14 -59 30q-33 17 -63 37q-4 3 -23.5 17t-34.5 24q-35 23 -57 49q-3 4 -19 23t-26 31q-26 29 -39 61q-12 29 -21 68q-10 42 -10 75q0 132 92 232 q90 98 246 139v195h365v-199q156 -46 247 -154q93 -110 93 -262v-12h-400v2q0 48 -30 86q-30 37 -101 37q-36 0 -57 -12t-25 -23q-4 -12 -4 -18q0 -47 154 -109q205 -82 301 -154q182 -132 182 -317q0 -139 -98 -240q-97 -100 -260 -137v-190h-365v198q-164 47 -258 154 t-94 264z" />
<glyph unicode="%" horiz-adv-x="2705" d="M68 1180q0 188 131 319t319 131q187 0 318 -131q133 -133 133 -319q0 -185 -131 -316t-316 -131q-187 0 -319 129q-131 128 -131 318h-4zM311 -4l1151 1597h445l-1151 -1597h-445zM408 1178q0 -46 30 -76q31 -31 76 -31q47 0 78 31t31 76q0 46 -31 77t-76 31t-76 -31 q-30 -30 -30 -75zM1257 408q0 187 132 319q131 131 319 131q186 0 317 -131q134 -134 134 -319t-131 -316t-316 -131q-187 0 -319 129q-131 128 -131 318h-5zM1597 406q0 -45 31 -76t76 -31q47 0 78 31q30 30 30 76q0 47 -30 77q-31 31 -76 31t-76 -31t-31 -75z" />
<glyph unicode="&#x26;" horiz-adv-x="2148" d="M47 416q0 141 86 241q87 101 248 191q-125 168 -125 328q0 186 145 319q143 131 344 131q198 0 338 -125q142 -127 142 -303q0 -230 -279 -393l172 -187q141 114 240 213l289 -276q-120 -117 -258 -229l301 -326l-525 -6l-100 108q-257 -139 -485 -139q-250 0 -392 133 q-141 132 -141 320zM453 444q0 -46 36 -75q39 -31 99 -31h-2q85 0 202 57l-200 217q-135 -86 -135 -168zM633 1176q0 -52 86 -144q137 82 137 152q0 41 -33 67q-35 27 -75 27q-44 0 -80 -31q-33 -29 -33 -71h-2z" />
<glyph unicode="'" horiz-adv-x="1052" d="M92 1597h397l-61 -712h-274z" />
<glyph unicode="(" horiz-adv-x="1359" d="M51 799q0 407 160 735q159 326 403 526l256 -309q-172 -135 -286 -383q-115 -251 -115 -565t115 -565t286 -388l-252 -311q-241 198 -405 524q-162 323 -162 736z" />
<glyph unicode=")" horiz-adv-x="1359" d="M18 -152q174 136 287 383q115 251 115 566q0 314 -115 565q-114 248 -287 387l252 311q243 -200 406 -524q162 -323 162 -735q0 -407 -160 -735q-159 -326 -404 -527z" />
<glyph unicode="*" horiz-adv-x="1574" d="M76 1112l125 377l205 -121l-48 229h398l-51 -235l202 115l123 -379l-235 -23l170 -153l-322 -234l-96 217l-94 -213l-320 236l178 159z" />
<glyph unicode="+" horiz-adv-x="1593" d="M84 563v371h291v287h373v-287h290v-371h-290v-289h-373v289h-291z" />
<glyph unicode="," horiz-adv-x="1132" d="M49 -207q112 121 152 197l-29 26q-28 25 -47 47t-37 66q-18 43 -18 92q0 110 75 185t185 75t182 -75q74 -77 74 -203q0 -219 -375 -565z" />
<glyph unicode="-" horiz-adv-x="1325" d="M117 475v383h620v-383h-620z" />
<glyph unicode="." horiz-adv-x="1126" d="M70 223q0 110 75 185t185 75q109 0 184 -75q76 -76 76 -185q0 -108 -76 -184t-184 -76q-109 0 -185 76q-75 75 -75 184z" />
<glyph unicode="/" horiz-adv-x="2189" d="M45 -365l1186 2327h442l-1190 -2327h-438z" />
<glyph unicode="0" horiz-adv-x="1947" d="M59 797q0 164 43 309q44 149 125 264q80 113 213 186q128 70 293 70q214 0 369 -119q158 -121 231 -305q74 -186 74 -403q0 -218 -74 -404q-73 -184 -231 -305q-155 -119 -369 -119q-161 0 -291 68q-129 67 -211 184q-81 115 -125 264q-43 145 -43 312zM467 795 q0 -198 74 -316q73 -117 190 -117t193 117q75 115 75 318q0 200 -75 315q-76 117 -193 117t-190 -117q-74 -118 -74 -315v-2z" />
<glyph unicode="1" horiz-adv-x="1275" d="M63 1051v426l351 120h274v-1597h-407v1126z" />
<glyph unicode="2" horiz-adv-x="1798" d="M66 -2v309l565 522q104 95 149 154q39 51 39 111t-41 98q-40 37 -110 37q-79 0 -129 -47t-50 -133v-48h-399v48q0 141 53 256q52 112 140 182q83 65 188 104q101 37 209 37q232 0 397 -145q164 -144 164 -387q0 -232 -215 -453q-18 -23 -90 -88l-25 -25l-135 -122h455 l-8 -410h-1157z" />
<glyph unicode="3" horiz-adv-x="1753" d="M41 127l213 336q186 -98 332 -98q200 0 200 129q0 149 -385 149v332q357 0 357 158q0 48 -39 84t-111 36q-59 0 -104 -26q-47 -27 -47 -92v-9h-387v41q0 212 163 338q162 125 381 125q220 0 387 -123q166 -123 166 -321q0 -228 -196 -363q241 -125 241 -362 q0 -222 -176 -357t-430 -135q-282 0 -565 158z" />
<glyph unicode="4" horiz-adv-x="1839" d="M33 274v318l561 1005h455l-533 -940h246v301h395v-301h156v-383h-156v-274h-395v274h-729z" />
<glyph unicode="5" horiz-adv-x="1806" d="M35 317l348 203q117 -153 270 -153q95 0 150 49t55 123q0 66 -39 114q-40 49 -123 49q-121 0 -239 -118l-346 159l153 854h899l2 -417h-596l-18 -156q78 35 203 35q223 0 372 -152q148 -151 148 -375q0 -246 -178 -405q-180 -160 -443 -160q-203 0 -362 99 q-164 102 -256 251z" />
<glyph unicode="6" horiz-adv-x="1802" d="M53 571q0 185 133 392l406 634l489 5l-325 -492q220 -9 368 -154t148 -374q0 -258 -176 -437q-175 -178 -428 -178q-259 0 -437 178t-178 426zM446 592q0 -96 62 -158q61 -61 151 -61q89 0 150 61t61 152q0 86 -61 147q-62 62 -150 62q-92 0 -167 -84h-3 q-43 -58 -43 -119z" />
<glyph unicode="7" horiz-adv-x="1662" d="M66 1188v409h1091v-329l-625 -1268h-462l620 1188h-624z" />
<glyph unicode="8" horiz-adv-x="1859" d="M59 477q0 250 211 373q-147 111 -147 313q0 209 166 338q167 129 403 129q234 0 402 -131t168 -338q0 -197 -152 -313q213 -127 213 -375q0 -221 -184 -362q-186 -142 -445 -142q-262 0 -448 142q-185 141 -185 362zM475 508q0 -68 60 -125q58 -55 157 -55q96 0 154 55 q59 56 59 127q0 73 -57 127q-58 55 -154 55q-100 0 -159 -53q-58 -52 -58 -127zM524 1141q0 -61 43 -107q42 -45 121 -45t121 45q43 46 43 107q0 57 -43 100t-119 43q-78 0 -121 -43t-43 -100h-2z" />
<glyph unicode="9" horiz-adv-x="1802" d="M59 1016q0 256 177 436q175 178 428 178q258 0 436 -178t178 -426q0 -184 -133 -391l-406 -635l-489 -4l325 491q-220 9 -368 154t-148 375zM461 1012q0 -87 61 -148t150 -61q93 0 168 84h2q43 58 43 119q0 95 -62 157t-151 62q-88 0 -150 -62q-61 -61 -61 -151z" />
<glyph unicode=":" horiz-adv-x="1187" d="M100 223q0 109 76 185q75 75 184 75q110 0 185 -75q76 -76 76 -185q0 -108 -76 -184t-185 -76q-108 0 -184 76t-76 184zM100 907q0 109 76 185q75 75 184 75q110 0 185 -75q76 -76 76 -185q0 -108 -76 -184t-185 -76q-108 0 -184 76t-76 184z" />
<glyph unicode=";" horiz-adv-x="1189" d="M80 -207q109 118 151 197l-28 26q-28 25 -47 47t-37 66q-19 46 -19 92q0 109 76 185q75 75 184 75q111 0 183 -75q73 -76 73 -203q0 -219 -374 -565zM96 907q0 109 76 185q75 75 184 75q110 0 185 -75t75 -185q0 -109 -75 -184q-76 -76 -185 -76q-108 0 -184 76t-76 184z " />
<glyph unicode="&#x3c;" horiz-adv-x="1669" d="M76 571v355l989 465v-435l-508 -206l508 -209v-432z" />
<glyph unicode="=" horiz-adv-x="1658" d="M117 334v371h954v-371h-954zM117 795v372h954v-372h-954z" />
<glyph unicode="&#x3e;" horiz-adv-x="1669" d="M133 109v434l508 207l-508 208v433l989 -463v-355z" />
<glyph unicode="?" horiz-adv-x="1681" d="M82 1065v68q0 121 49 219q48 95 129 155q82 60 176 90q98 31 195 31q207 0 354 -129q148 -130 148 -340q0 -238 -230 -393q-15 -11 -49 -33q-24 -15 -51 -37q-25 -20 -37 -32q-22 -22 -31 -43q-8 -19 -8 -50v-4h-346v66q0 93 43 172q44 81 86 117q37 32 115 90 q49 38 75 67q25 28 25 68q0 37 -27 67q-28 31 -80 31q-59 0 -98 -39t-39 -123v-18h-399zM301 223q0 109 76 185q75 75 184 75t184 -75q76 -76 76 -185q0 -108 -76 -184t-184 -76t-184 76t-76 184z" />
<glyph unicode="@" horiz-adv-x="2437" d="M80 727q0 260 135 485q136 227 363 355q228 129 487 129q350 0 588 -244q237 -243 237 -596q0 -270 -145 -438q-144 -166 -344 -166q-192 0 -307 151q-68 -24 -146 -24q-162 0 -272 110q-111 111 -111 275l-2 -2q0 181 135 313q136 133 318 133q162 0 272 -110 q111 -111 111 -273q0 -132 -76 -245q29 -33 80 -33q69 0 123 78q51 74 51 209q0 232 -156 391t-387 159q-263 0 -454 -188t-191 -448q0 -232 156 -388q157 -157 387 -157q129 0 219 37l147 -248q-198 -88 -393 -88q-352 0 -588 239q-237 240 -237 584zM868 784q0 -43 29 -75 q28 -31 74 -31q51 0 88 37t37 88q0 45 -31 76q-30 30 -76 30q-52 0 -86 -37q-35 -38 -35 -88z" />
<glyph unicode="A" d="M0 0l647 1597h406l645 -1597h-447l-88 233h-628l-89 -233h-446zM674 604h350l-174 469z" />
<glyph unicode="B" horiz-adv-x="2031" d="M123 0v1599h795q250 0 385 -120t135 -320q0 -229 -195 -338q266 -102 266 -370q0 -200 -141 -326q-140 -125 -381 -125h-864zM532 373h410q152 0 152 143q0 137 -152 137h-410v-280zM535 973h337q152 0 152 127q0 59 -33 92q-35 35 -98 35h-358v-254z" />
<glyph unicode="C" horiz-adv-x="2144" d="M41 805q0 341 252 584t598 243q245 0 446 -125q205 -128 312 -331l-373 -168q-55 101 -158 163t-225 62q-180 0 -307 -127t-127 -307t127 -307t307 -127q126 0 227 61q103 62 158 166l369 -158q-109 -207 -310 -332t-446 -125q-345 0 -598 244q-252 243 -252 584z" />
<glyph unicode="D" horiz-adv-x="2146" d="M121 1599h741q244 0 418 -110q176 -111 258 -289q84 -182 84 -399q0 -225 -82 -402q-82 -176 -258 -288q-176 -111 -418 -111h-741zM530 395h301q178 0 277 111q98 110 98 295q0 186 -98 293q-99 108 -277 108l-301 -2v-805z" />
<glyph unicode="E" horiz-adv-x="1896" d="M123 0v1597h1227v-397h-818v-229h672v-371h-672v-205h818v-395h-1227z" />
<glyph unicode="F" horiz-adv-x="1832" d="M123 0v1597h1186v-397h-779v-282h654v-371h-654v-547h-407z" />
<glyph unicode="G" horiz-adv-x="2174" d="M47 801q0 339 250 583t596 244q199 0 381 -90q175 -87 295 -244l-334 -225q-132 164 -344 164q-180 0 -307 -127q-125 -125 -125 -307q0 -180 127 -307t307 -127q218 0 344 182v45h-387l-2 344h770v-932h-322v150q-61 -89 -168 -134q-112 -47 -235 -47q-346 0 -596 244 t-250 584z" />
<glyph unicode="H" horiz-adv-x="2185" d="M123 0v1597h407v-620h652v620h409v-1597h-409v594h-652v-594h-407z" />
<glyph unicode="I" horiz-adv-x="1126" d="M123 0v1597h409v-1597h-409z" />
<glyph unicode="J" horiz-adv-x="1832" d="M33 594v139h409v-133q0 -233 203 -233q98 0 150 49q51 48 51 182v999l411 2v-1005q0 -304 -172 -463q-174 -160 -438 -160q-256 0 -436 160q-178 159 -178 463z" />
<glyph unicode="K" horiz-adv-x="2043" d="M123 0v1597h409v-550l496 550h528l-630 -686l663 -911h-508l-440 602l-109 -121v-481h-409z" />
<glyph unicode="L" horiz-adv-x="1794" d="M123 0v1597h407v-1202h766v-395h-1173z" />
<glyph unicode="M" horiz-adv-x="2463" d="M123 0v1597h412l460 -1009l463 1009h412v-1597h-408v752l-332 -691h-268l-332 691v-752h-407z" />
<glyph unicode="N" horiz-adv-x="2185" d="M123 0v1597h348l713 -892v892h407v-1597h-346l-713 891v-891h-409z" />
<glyph unicode="O" horiz-adv-x="2260" d="M43 799q0 340 252 583q253 244 598 244q350 0 600 -244t250 -583q0 -342 -248 -584q-250 -244 -598 -244q-345 0 -598 244q-252 243 -252 584h-4zM457 799q0 -180 127 -307t307 -127q182 0 309 127q125 125 125 307t-125 307q-127 127 -309 127q-180 0 -307 -127 t-127 -307z" />
<glyph unicode="P" horiz-adv-x="1959" d="M123 0v1599h704q302 0 465 -178q164 -179 164 -436q0 -267 -162 -444q-164 -179 -467 -179h-295v-362h-409zM532 739h273q235 0 235 248q0 106 -57 172q-59 68 -178 68l-273 2v-490z" />
<glyph unicode="Q" horiz-adv-x="2263" d="M39 803q0 340 252 583q253 244 598 244q350 0 600 -244t250 -583q0 -225 -113 -414q-114 -190 -301 -301q125 -88 209 -88q92 0 139 72l309 -250q-80 -112 -202 -164q-124 -53 -244 -53q-109 0 -221 47q-113 47 -187 104q-82 63 -182 127q-114 73 -192 97 q-302 47 -504 280q-203 235 -203 539zM453 803q0 -180 127 -307t307 -127q182 0 309 127q125 125 125 307t-125 307q-127 127 -309 127q-180 0 -307 -127t-127 -307z" />
<glyph unicode="R" horiz-adv-x="2039" d="M123 0v1597h778q295 0 447 -165q153 -166 153 -420q0 -174 -80 -316q-81 -143 -235 -213l346 -483h-490l-303 428h-209v-428h-407zM528 799h351q114 0 170 59q55 58 55 152q0 215 -225 215h-351v-426z" />
<glyph unicode="S" horiz-adv-x="1902" d="M59 461v18l387 -18v-10q0 -52 72 -99q68 -45 201 -45q102 0 155 29q50 27 50 67q0 48 -62 86q-58 36 -211 89q-31 11 -84 30t-75 27q-65 24 -154 74q-93 52 -141 100q-51 51 -93 133q-38 75 -38 174q0 227 174 361q175 135 450 135q283 0 469 -142q184 -141 184 -374v-23 h-399v14q0 66 -63 117q-65 53 -181 53q-96 0 -145 -30t-49 -76t55 -76q62 -34 209 -84q16 -6 39.5 -14.5t38.5 -13.5t26 -9q26 -8 111 -43q64 -26 117 -59q32 -20 100 -74q63 -50 90 -92q35 -54 56 -111q24 -65 24 -135q0 -227 -176 -350t-459 -123q-298 0 -487 131 q-191 132 -191 363z" />
<glyph unicode="T" horiz-adv-x="1925" d="M25 1200v397h1405v-397h-498v-1200h-410v1200h-497z" />
<glyph unicode="U" horiz-adv-x="2140" d="M100 698v899h410v-874q0 -175 82 -266q83 -92 242 -92q160 0 243 92q84 93 84 266v874h408v-899q0 -317 -195 -524q-193 -205 -540 -205t-541 203q-193 202 -193 526z" />
<glyph unicode="V" d="M0 1597h446l402 -1073l403 1073h447l-647 -1597h-406z" />
<glyph unicode="W" horiz-adv-x="2820" d="M-2 1597h436l258 -952l299 952h365l299 -950l258 950h438l-448 -1597h-424l-305 928l-304 -928h-424z" />
<glyph unicode="X" horiz-adv-x="2043" d="M-6 0l549 803l-537 794h483l297 -436l299 436h484l-537 -794l549 -803h-498l-297 438l-294 -438h-498z" />
<glyph unicode="Y" horiz-adv-x="2142" d="M0 1597h481l353 -579l354 579h483l-633 -1011v-586h-407v586z" />
<glyph unicode="Z" horiz-adv-x="1964" d="M63 0v299l744 901h-719v397h1329v-299l-745 -903h747v-395h-1356z" />
<glyph unicode="[" horiz-adv-x="1280" d="M119 -444v2488h620v-385h-213v-1720h213v-383h-620z" />
<glyph unicode="\" horiz-adv-x="2187" d="M43 1962h442l1186 -2327h-438z" />
<glyph unicode="]" horiz-adv-x="1280" d="M70 -61h213v1720h-213v383h620v-2488h-620v385z" />
<glyph unicode="^" horiz-adv-x="1900" d="M74 649l463 948h354l465 -948h-434l-207 465l-209 -465h-432z" />
<glyph unicode="_" horiz-adv-x="1918" d="M98 -45h1252v-352h-1252v352z" />
<glyph unicode="`" horiz-adv-x="1202" d="M0 1948l199 344l532 -379l-137 -238z" />
<glyph unicode="a" d="M0 0l647 1597h406l645 -1597h-447l-88 233h-628l-89 -233h-446zM674 604h350l-174 469z" />
<glyph unicode="b" horiz-adv-x="2031" d="M123 0v1599h795q250 0 385 -120t135 -320q0 -229 -195 -338q266 -102 266 -370q0 -200 -141 -326q-140 -125 -381 -125h-864zM532 373h410q152 0 152 143q0 137 -152 137h-410v-280zM535 973h337q152 0 152 127q0 59 -33 92q-35 35 -98 35h-358v-254z" />
<glyph unicode="c" horiz-adv-x="2144" d="M41 805q0 341 252 584t598 243q245 0 446 -125q205 -128 312 -331l-373 -168q-55 101 -158 163t-225 62q-180 0 -307 -127t-127 -307t127 -307t307 -127q126 0 227 61q103 62 158 166l369 -158q-109 -207 -310 -332t-446 -125q-345 0 -598 244q-252 243 -252 584z" />
<glyph unicode="d" horiz-adv-x="2146" d="M121 1599h741q244 0 418 -110q176 -111 258 -289q84 -182 84 -399q0 -225 -82 -402q-82 -176 -258 -288q-176 -111 -418 -111h-741zM530 395h301q178 0 277 111q98 110 98 295q0 186 -98 293q-99 108 -277 108l-301 -2v-805z" />
<glyph unicode="e" horiz-adv-x="1896" d="M123 0v1597h1227v-397h-818v-229h672v-371h-672v-205h818v-395h-1227z" />
<glyph unicode="f" horiz-adv-x="1832" d="M123 0v1597h1186v-397h-779v-282h654v-371h-654v-547h-407z" />
<glyph unicode="g" horiz-adv-x="2174" d="M47 801q0 339 250 583t596 244q199 0 381 -90q175 -87 295 -244l-334 -225q-132 164 -344 164q-180 0 -307 -127q-125 -125 -125 -307q0 -180 127 -307t307 -127q218 0 344 182v45h-387l-2 344h770v-932h-322v150q-61 -89 -168 -134q-112 -47 -235 -47q-346 0 -596 244 t-250 584z" />
<glyph unicode="h" horiz-adv-x="2185" d="M123 0v1597h407v-620h652v620h409v-1597h-409v594h-652v-594h-407z" />
<glyph unicode="i" horiz-adv-x="1126" d="M123 0v1597h409v-1597h-409z" />
<glyph unicode="j" horiz-adv-x="1832" d="M33 594v139h409v-133q0 -233 203 -233q98 0 150 49q51 48 51 182v999l411 2v-1005q0 -304 -172 -463q-174 -160 -438 -160q-256 0 -436 160q-178 159 -178 463z" />
<glyph unicode="k" horiz-adv-x="2043" d="M123 0v1597h409v-550l496 550h528l-630 -686l663 -911h-508l-440 602l-109 -121v-481h-409z" />
<glyph unicode="l" horiz-adv-x="1794" d="M123 0v1597h407v-1202h766v-395h-1173z" />
<glyph unicode="m" horiz-adv-x="2463" d="M123 0v1597h412l460 -1009l463 1009h412v-1597h-408v752l-332 -691h-268l-332 691v-752h-407z" />
<glyph unicode="n" horiz-adv-x="2185" d="M123 0v1597h348l713 -892v892h407v-1597h-346l-713 891v-891h-409z" />
<glyph unicode="o" horiz-adv-x="2260" d="M43 799q0 340 252 583q253 244 598 244q350 0 600 -244t250 -583q0 -342 -248 -584q-250 -244 -598 -244q-345 0 -598 244q-252 243 -252 584h-4zM457 799q0 -180 127 -307t307 -127q182 0 309 127q125 125 125 307t-125 307q-127 127 -309 127q-180 0 -307 -127 t-127 -307z" />
<glyph unicode="p" horiz-adv-x="1959" d="M123 0v1599h704q302 0 465 -178q164 -179 164 -436q0 -267 -162 -444q-164 -179 -467 -179h-295v-362h-409zM532 739h273q235 0 235 248q0 106 -57 172q-59 68 -178 68l-273 2v-490z" />
<glyph unicode="q" horiz-adv-x="2263" d="M39 803q0 340 252 583q253 244 598 244q350 0 600 -244t250 -583q0 -225 -113 -414q-114 -190 -301 -301q125 -88 209 -88q92 0 139 72l309 -250q-80 -112 -202 -164q-124 -53 -244 -53q-109 0 -221 47q-113 47 -187 104q-82 63 -182 127q-114 73 -192 97 q-302 47 -504 280q-203 235 -203 539zM453 803q0 -180 127 -307t307 -127q182 0 309 127q125 125 125 307t-125 307q-127 127 -309 127q-180 0 -307 -127t-127 -307z" />
<glyph unicode="r" horiz-adv-x="2039" d="M123 0v1597h778q295 0 447 -165q153 -166 153 -420q0 -174 -80 -316q-81 -143 -235 -213l346 -483h-490l-303 428h-209v-428h-407zM528 799h351q114 0 170 59q55 58 55 152q0 215 -225 215h-351v-426z" />
<glyph unicode="s" horiz-adv-x="1902" d="M59 461v18l387 -18v-10q0 -52 72 -99q68 -45 201 -45q102 0 155 29q50 27 50 67q0 48 -62 86q-58 36 -211 89q-31 11 -84 30t-75 27q-65 24 -154 74q-93 52 -141 100q-51 51 -93 133q-38 75 -38 174q0 227 174 361q175 135 450 135q283 0 469 -142q184 -141 184 -374v-23 h-399v14q0 66 -63 117q-65 53 -181 53q-96 0 -145 -30t-49 -76t55 -76q62 -34 209 -84q16 -6 39.5 -14.5t38.5 -13.5t26 -9q26 -8 111 -43q64 -26 117 -59q32 -20 100 -74q63 -50 90 -92q35 -54 56 -111q24 -65 24 -135q0 -227 -176 -350t-459 -123q-298 0 -487 131 q-191 132 -191 363z" />
<glyph unicode="t" horiz-adv-x="1925" d="M25 1200v397h1405v-397h-498v-1200h-410v1200h-497z" />
<glyph unicode="u" horiz-adv-x="2140" d="M100 698v899h410v-874q0 -175 82 -266q83 -92 242 -92q160 0 243 92q84 93 84 266v874h408v-899q0 -317 -195 -524q-193 -205 -540 -205t-541 203q-193 202 -193 526z" />
<glyph unicode="v" d="M0 1597h446l402 -1073l403 1073h447l-647 -1597h-406z" />
<glyph unicode="w" horiz-adv-x="2820" d="M-2 1597h436l258 -952l299 952h365l299 -950l258 950h438l-448 -1597h-424l-305 928l-304 -928h-424z" />
<glyph unicode="x" horiz-adv-x="2043" d="M-6 0l549 803l-537 794h483l297 -436l299 436h484l-537 -794l549 -803h-498l-297 438l-294 -438h-498z" />
<glyph unicode="y" horiz-adv-x="2142" d="M0 1597h481l353 -579l354 579h483l-633 -1011v-586h-407v586z" />
<glyph unicode="z" horiz-adv-x="1964" d="M63 0v299l744 901h-719v397h1329v-299l-745 -903h747v-395h-1356z" />
<glyph unicode="{" horiz-adv-x="1236" d="M78 1563q0 204 141 342q142 139 381 139h78v-369h-78q-63 0 -106 -37t-43 -100q0 -57 88 -229t88 -265q0 -151 -113 -245q113 -94 113 -246q0 -92 -88 -264t-88 -230q0 -68 43 -102q44 -35 108 -35h78v-368h-78q-241 0 -381 137q-141 138 -141 344q0 98 37 205 q38 110 78 188q38 75 38 121q0 84 -86 84h-38l-5 332h39q86 0 86 84q0 43 -39 120q-29 58 -75 189q-37 107 -37 205z" />
<glyph unicode="|" horiz-adv-x="1099" d="M117 -379v2357h395v-2357h-395z" />
<glyph unicode="}" horiz-adv-x="1236" d="M82 -82h78q65 0 108 37t43 102q0 60 -88 232t-88 264q0 152 113 246q-113 94 -113 245q0 93 88 265t88 229q0 68 -43 102q-44 35 -106 35h-78v369h78q241 0 381 -137q141 -138 141 -344q0 -98 -37 -205q-41 -119 -76 -187q-39 -77 -39 -120q0 -84 86 -84h39l-4 -344h-39 q-86 0 -86 -84q0 -44 39 -121q41 -81 78 -187q37 -107 37 -204q0 -202 -141 -340t-381 -138h-78v369z" />
<glyph unicode="~" horiz-adv-x="1531" d="M115 487q0 62 8 109q9 52 33 123q24 70 84 115q58 43 147 43q99 0 211 -80q36 -25 49 -25q16 0 19 14q3 15 0 52h272q0 -62 -8 -109q-9 -53 -33 -123q-23 -69 -84 -114q-58 -43 -147 -43q-101 0 -211 79q-36 25 -49 25q-16 0 -19 -14q-3 -15 0 -52h-272z" />
<glyph unicode="&#xa1;" horiz-adv-x="1132" d="M70 1374q0 110 75 185t185 75q109 0 184 -75q76 -76 76 -185q0 -108 -76 -184t-184 -76q-109 0 -185 76q-75 75 -75 184zM102 0l93 1016h272l92 -1016h-457z" />
<glyph unicode="&#xa2;" horiz-adv-x="1722" d="M80 686q0 182 108 326q107 143 281 202v205h383v-207q211 -70 319 -270l-358 -160q-53 68 -141 68q-70 0 -119 -49t-49 -119q0 -71 49 -117q50 -47 121 -47q88 0 141 68l361 -154q-105 -197 -324 -274v-205h-383v205q-174 59 -281 202q-108 144 -108 326z" />
<glyph unicode="&#xa3;" horiz-adv-x="1726" d="M88 289q101 46 139 102t41 129h-176v352h103q-41 128 -41 240q0 240 149 377t369 137q203 0 350 -123t147 -358v-37h-397v12q0 65 -33 88q-36 25 -73 25q-52 0 -82 -27q-31 -28 -31 -80q0 -32 8 -63q4 -14 31 -98q13 -40 31 -88h331v-353h-286q-9 -75 -21 -116h502v-408 h-1059z" />
<glyph unicode="&#xa5;" horiz-adv-x="2256" d="M57 1597h484l352 -579l354 579h482l-410 -657h135v-309h-328l-28 -47v-19h356v-309h-356v-256h-410v256h-356v309h356v23l-26 43h-330v309h135z" />
<glyph unicode="&#xa6;" horiz-adv-x="1099" d="M117 -379v1036h395v-1036h-395zM117 942v1036h395v-1036h-395z" />
<glyph unicode="&#xa7;" horiz-adv-x="1652" d="M80 834q0 165 149 253q-75 90 -75 207q0 160 122 248t306 88q191 0 325 -98q135 -99 144 -279v-32h-381v18q0 76 -76 76q-55 0 -55 -41q0 -20 12 -35t41 -31q15 -9 59 -26q63 -25 78 -31q14 -5 28 -11.5t29 -13.5t23 -10q293 -138 293 -354h2q0 -164 -150 -252 q76 -91 76 -207q0 -159 -123 -244q-124 -86 -309 -86q-122 0 -215 37q-96 38 -166 123q-71 86 -80 215l-2 31h381v-17q0 -75 76 -75q55 0 55 45q0 15 -10 28q-9 12 -35 25q-36 18 -51 23q-30 10 -80 30q-24 10 -98 43q-293 141 -293 353zM471 823q0 -20 10 -37q8 -13 31 -26 q24 -14 37 -19q4 -2 20 -8t27 -10q5 -2 41 -14l25 -11q47 15 47 68q0 22 -9 37q-10 17 -30 28q-24 14 -37 19l-45 18q-8 3 -17.5 7t-15 6.5t-8.5 3.5l-29 6q-47 -15 -47 -68z" />
<glyph unicode="&#xa8;" horiz-adv-x="1382" d="M-2 1894q0 81 59 140t142 59q84 0 141 -57t57 -138q0 -84 -57 -141t-141 -57q-83 0 -142 59q-57 57 -57 142zM512 1888q0 81 59 140t142 59q84 0 141 -57t57 -138q0 -84 -57 -141t-141 -57q-83 0 -142 59q-57 57 -57 141z" />
<glyph unicode="&#xa9;" horiz-adv-x="2289" d="M80 799q0 338 244 585q243 246 583 246t586 -246t246 -585q0 -341 -246 -584q-247 -244 -586 -244t-583 244t-244 584zM379 795q0 -220 153 -373q154 -154 373 -154t375 156q158 158 158 375q0 219 -156 375q-155 155 -375 155t-372 -155q-154 -157 -154 -375zM496 791 q0 174 120 294q121 121 295 121q117 0 215 -61q101 -63 152 -162l-281 -131q-30 47 -86 47q-44 0 -75 -31t-31 -75q0 -45 31 -76t77 -31q53 0 86 45l279 -133q-51 -99 -152 -162q-98 -61 -217 -61q-174 0 -295 121q-118 118 -118 295z" />
<glyph unicode="&#xaa;" horiz-adv-x="1550" d="M59 1184q0 186 123 315t299 129q111 0 185 -45v25h290v-844h-290l2 20q-73 -43 -187 -43q-176 0 -299 129t-123 314zM352 1182q0 -66 43 -109t111 -43q66 0 112 43t46 109t-46 112q-45 45 -112 45q-69 0 -111 -45q-43 -46 -43 -112z" />
<glyph unicode="&#xab;" horiz-adv-x="1904" d="M98 590v317l580 514v-483l-213 -188l213 -191v-481zM719 590v317l579 514v-483l-213 -188l213 -191v-481z" />
<glyph unicode="&#xad;" horiz-adv-x="1325" d="M117 475v383h620v-383h-620z" />
<glyph unicode="&#xae;" horiz-adv-x="1622" d="M78 1130q0 205 145 353q144 147 350 147q207 0 351 -147q145 -148 145 -353q0 -204 -145 -352q-144 -147 -351 -147q-206 0 -350 147q-145 148 -145 352zM199 1122q0 -152 108 -260q106 -106 262 -106q154 0 262 108q109 109 109 262q0 157 -106 263q-108 108 -261 108 q-154 0 -260 -106t-106 -261zM387 893v481h207q82 0 131 -49t49 -121q0 -104 -84 -151l94 -160h-125l-77 137h-82v-137h-113zM500 1137h88q34 0 51 20q18 21 18 45q0 27 -18 45q-19 19 -51 19l-88 -2v-127z" />
<glyph unicode="&#xaf;" horiz-adv-x="1204" d="M0 1700v303h733v-303h-733z" />
<glyph unicode="&#xb0;" horiz-adv-x="1380" d="M55 1227q0 165 117 282t281 117q165 0 282 -117t117 -282q0 -162 -117 -279t-282 -117q-162 0 -279 117t-117 281zM326 1227q0 -52 36 -88q37 -37 89 -37q53 0 90 37t37 88q0 53 -37 90t-90 37q-52 0 -89 -37q-36 -36 -36 -90z" />
<glyph unicode="&#xb1;" horiz-adv-x="1630" d="M102 754v370h291v287h373v-287h291v-370h-291v-289h-373v289h-291zM104 33v370h953v-370h-953z" />
<glyph unicode="&#xb2;" horiz-adv-x="1368" d="M51 555v211l383 336q84 74 103 98q24 30 24 64q0 35 -26 55q-28 22 -74 22q-53 0 -86 -26t-33 -76v-33h-276v33q0 182 120 281q119 98 277 98q155 0 268 -96q111 -94 111 -256q0 -82 -43 -158q-44 -76 -80 -113q-6 -6 -103 -94l-69 -59h287l6 -287h-789z" />
<glyph unicode="&#xb3;" horiz-adv-x="1339" d="M23 643l149 229q126 -63 225 -63q133 0 133 74q0 84 -260 84v229q238 0 238 90q0 27 -25 49q-26 23 -69 23q-101 0 -101 -70v-4h-268v29q0 141 111 223q110 82 258 82q151 0 264 -82t113 -211q0 -145 -125 -233q157 -80 157 -232q0 -146 -118 -233q-119 -88 -295 -88 q-201 0 -387 104z" />
<glyph unicode="&#xb4;" horiz-adv-x="1202" d="M0 1913l532 379l199 -344l-594 -273z" />
<glyph unicode="&#xb6;" horiz-adv-x="2189" d="M76 1034q0 231 164 398q162 165 397 165h950v-1597h-395v1225h-82v-1225h-395v469h-78q-234 0 -397 166q-164 167 -164 399zM467 1032q0 -81 47 -137q46 -55 121 -55h78v383h-78q-71 0 -119 -54q-45 -51 -45 -135z" />
<glyph unicode="&#xb7;" horiz-adv-x="1126" d="M86 748q0 108 76 184t184 76t184 -76t76 -184q0 -109 -76 -185t-184 -76t-184 76t-76 185z" />
<glyph unicode="&#xb8;" horiz-adv-x="1132" d="M33 -530l106 245q99 -51 166 -51q76 0 76 47q0 22 -19 41q-17 17 -65 2l-98 88l71 183l189 -2l-23 -119q86 -27 127 -92t41 -144q0 -114 -74 -188t-206 -74q-58 0 -136 16q-63 13 -112 31z" />
<glyph unicode="&#xb9;" horiz-adv-x="1013" d="M37 1223v297l237 77h191v-1038h-283v713z" />
<glyph unicode="&#xba;" horiz-adv-x="1476" d="M55 1184q0 186 129 315t316 129t319 -129q131 -128 131 -315q0 -186 -131 -314q-132 -129 -319 -129t-316 129t-129 314zM346 1182q0 -66 43 -109t109 -43q70 0 116 43q45 42 45 109q0 65 -45 110q-47 47 -116 47q-67 0 -109 -45q-43 -46 -43 -110v-2z" />
<glyph unicode="&#xbb;" horiz-adv-x="1904" d="M135 78v483l213 189l-213 190v481l580 -512v-317zM756 78v483l213 189l-213 190v481l579 -512v-317z" />
<glyph unicode="&#xbc;" horiz-adv-x="2461" d="M90 1223v297l238 77h190v-1038h-282v713zM289 0l946 1597h309l-946 -1597h-309zM1049 174v219l381 645h313l-352 -598h149v187h275v-187h104v-266h-104v-174h-275v174h-491z" />
<glyph unicode="&#xbd;" horiz-adv-x="2543" d="M80 1223v297l237 77h191v-1038h-283v713zM285 -4l946 1597h309l-946 -1597h-309zM1202 -4v211l383 336q84 74 103 98q24 30 24 64q0 35 -26 55q-28 22 -74 22q-53 0 -86 -26t-33 -76v-33h-276v33q0 182 120 281q119 98 277 98q155 0 268 -96q111 -94 111 -256 q0 -82 -43 -158q-43 -77 -80 -113q-6 -6 -103 -94l-69 -59h287l6 -287h-789z" />
<glyph unicode="&#xbe;" horiz-adv-x="2699" d="M76 643l149 229q126 -63 226 -63q133 0 133 74q0 84 -260 84v229q237 0 237 90q0 28 -24 49q-26 23 -70 23q-100 0 -100 -70v-4h-269v29q0 141 111 223q110 82 258 82q151 0 264 -82t113 -211q0 -145 -125 -233q158 -81 158 -232q0 -145 -119 -233t-295 -88 q-201 0 -387 104zM526 0l947 1597h309l-946 -1597h-310zM1286 174v219l381 645h313l-352 -598h150v187h274v-187h105v-266h-105v-174h-274v174h-492z" />
<glyph unicode="&#xbf;" horiz-adv-x="1681" d="M78 438q0 238 229 393q15 11 49 33q29 18 52 37q15 12 36 33q22 22 31 43q8 19 8 49v4l342 -6v-66q0 -93 -43 -172t-86 -116q-56 -48 -112 -90q-49 -38 -76 -68q-25 -28 -25 -68q0 -37 27 -67q28 -31 80 -31q57 0 98 41t41 123v18h399v-67q0 -119 -49 -217 q-48 -97 -129 -156q-82 -60 -176 -90q-98 -31 -194 -31q-208 0 -355 129t-147 342zM385 1368q0 108 76 184t184 76t184 -76t76 -184t-76 -184t-184 -76t-184 76t-76 184z" />
<glyph unicode="&#xc0;" d="M0 0l647 1597h406l645 -1597h-447l-88 233h-628l-89 -233h-446zM485 1948l199 344l533 -379l-138 -238zM674 604h350l-174 469z" />
<glyph unicode="&#xc1;" d="M0 0l647 1597h406l645 -1597h-447l-88 233h-628l-89 -233h-446zM485 1913l533 379l199 -344l-594 -273zM674 604h350l-174 469z" />
<glyph unicode="&#xc2;" d="M0 0l647 1597h406l645 -1597h-447l-88 233h-628l-89 -233h-446zM383 1909l467 366l465 -366l-176 -219l-289 190l-293 -190zM674 604h350l-174 469z" />
<glyph unicode="&#xc3;" d="M0 0l647 1597h406l645 -1597h-447l-88 233h-628l-89 -233h-446zM436 1739q0 61 8 108q9 53 33 123t84 115q58 43 148 43q99 0 211 -80q36 -25 49 -25q15 0 18 15t0 51h273q0 -57 -9 -109q-10 -56 -32 -122q-24 -70 -84 -115q-58 -43 -148 -43q-99 0 -211 80 q-34 24 -49 24t-18 -14q-3 -15 0 -51h-273zM674 604h350l-174 469z" />
<glyph unicode="&#xc4;" d="M0 0l647 1597h406l645 -1597h-447l-88 233h-628l-89 -233h-446zM393 1894q0 80 60 140q59 59 141 59q84 0 141 -57q58 -58 58 -138q0 -83 -58 -141q-57 -57 -141 -57q-82 0 -141 59q-58 58 -58 142zM674 604h350l-174 469zM907 1888q0 80 60 140q59 59 141 59 q84 0 141 -57q58 -58 58 -138q0 -83 -58 -141q-57 -57 -141 -57q-82 0 -141 59q-58 58 -58 141z" />
<glyph unicode="&#xc5;" d="M0 0l645 1595q-133 103 -133 271l2 -2q0 140 98 241t238 101q139 0 240 -101q102 -102 102 -239q0 -168 -139 -271l645 -1595h-447l-88 233h-628l-89 -233h-446zM676 602h350l-174 469zM754 1864q0 -40 28 -68q29 -29 68 -29t68 29q28 28 28 68q0 39 -28 67 q-29 29 -68 29t-68 -29q-28 -28 -28 -67z" />
<glyph unicode="&#xc6;" horiz-adv-x="3094" d="M-20 0l1284 1597h1284v-397h-819v-229h673v-371h-673v-205h819v-395h-1227v233h-631l-184 -233h-526zM981 604h340v430z" />
<glyph unicode="&#xc7;" horiz-adv-x="2144" d="M41 805q0 341 252 584t598 243q245 0 446 -125q205 -128 312 -331l-373 -168q-55 101 -158 163t-225 62q-180 0 -307 -127t-127 -307t127 -307t307 -127q126 0 227 61q103 62 158 166l369 -162q-100 -196 -285 -317q-191 -125 -412 -140l-18 -96q86 -27 127 -92t41 -143 q0 -115 -74 -189t-207 -74q-52 0 -135 17q-66 14 -117 31l-41 16l107 246q99 -51 166 -51q75 0 75 47q0 23 -18 41q-17 17 -65 2l-99 88l66 168q-305 47 -510 280q-207 236 -207 541z" />
<glyph unicode="&#xc8;" horiz-adv-x="1896" d="M123 0v1597h1227v-397h-818v-229h672v-371h-672v-205h818v-395h-1227zM371 1948l198 344l533 -379l-137 -238z" />
<glyph unicode="&#xc9;" horiz-adv-x="1896" d="M123 0v1597h1227v-397h-818v-229h672v-371h-672v-205h818v-395h-1227zM371 1913l532 379l199 -344l-594 -273z" />
<glyph unicode="&#xca;" horiz-adv-x="1896" d="M123 0v1597h1227v-397h-818v-229h672v-371h-672v-205h818v-395h-1227zM268 1909l467 366l465 -366l-176 -219l-289 190l-293 -190z" />
<glyph unicode="&#xcb;" horiz-adv-x="1896" d="M123 0v1597h1227v-397h-818v-229h672v-371h-672v-205h818v-395h-1227zM279 1894q0 81 59 140t141 59q85 0 142 -57t57 -138q0 -84 -57 -141t-142 -57q-82 0 -141 59q-57 57 -57 142zM793 1888q0 81 59 140t141 59q85 0 142 -57t57 -138q0 -84 -57 -141t-142 -57 q-82 0 -141 59q-57 57 -57 141z" />
<glyph unicode="&#xcc;" horiz-adv-x="1126" d="M-39 1948l199 344l532 -379l-137 -238zM123 0v1597h409v-1597h-409z" />
<glyph unicode="&#xcd;" horiz-adv-x="1126" d="M-39 1913l533 379l198 -344l-594 -273zM123 0v1597h409v-1597h-409z" />
<glyph unicode="&#xce;" horiz-adv-x="1126" d="M-141 1909l467 366l465 -366l-177 -219l-288 190l-293 -190zM123 0v1597h409v-1597h-409z" />
<glyph unicode="&#xcf;" horiz-adv-x="1126" d="M-131 1894q0 81 59 140t142 59q84 0 141 -57t57 -138q0 -84 -57 -141t-141 -57q-83 0 -142 59q-57 57 -57 142zM123 0v1597h409v-1597h-409zM383 1888q0 81 59 140t142 59q84 0 141 -57t57 -138q0 -84 -57 -141t-141 -57q-83 0 -142 59q-57 57 -57 141z" />
<glyph unicode="&#xd0;" horiz-adv-x="2156" d="M14 610v353h117v636h741q244 0 418 -110q176 -111 258 -289q84 -182 84 -399q0 -225 -82 -402q-82 -176 -258 -288q-176 -111 -418 -111h-741l-2 610h-117zM541 395h301q177 0 276 111t99 295q0 185 -99 293t-276 108h-301v-239h338v-355h-338v-213z" />
<glyph unicode="&#xd1;" horiz-adv-x="2185" d="M123 0v1597h348l713 -892v892h407v-1597h-346l-713 891v-891h-409zM444 1739q0 55 9 108q10 58 32 123q24 70 84 115q58 43 148 43q99 0 211 -80q36 -25 49 -25q15 0 18 15t0 51h273q0 -62 -8 -109q-9 -50 -33 -122q-24 -70 -84 -115q-58 -43 -148 -43q-99 0 -211 80 q-34 24 -49 24t-18 -14q-3 -15 0 -51h-273z" />
<glyph unicode="&#xd2;" horiz-adv-x="2260" d="M43 799q0 340 252 583q253 244 598 244q350 0 600 -244t250 -583q0 -342 -248 -584q-250 -244 -598 -244q-345 0 -598 244q-252 243 -252 584h-4zM457 799q0 -180 127 -307t307 -127q182 0 309 127q125 125 125 307t-125 307q-127 127 -309 127q-180 0 -307 -127 t-127 -307zM526 1948l199 344l532 -379l-137 -238z" />
<glyph unicode="&#xd3;" horiz-adv-x="2260" d="M43 799q0 340 252 583q253 244 598 244q350 0 600 -244t250 -583q0 -342 -248 -584q-250 -244 -598 -244q-345 0 -598 244q-252 243 -252 584h-4zM457 799q0 -180 127 -307t307 -127q182 0 309 127q125 125 125 307t-125 307q-127 127 -309 127q-180 0 -307 -127 t-127 -307zM528 1913l533 379l199 -344l-594 -273z" />
<glyph unicode="&#xd4;" horiz-adv-x="2260" d="M43 799q0 340 252 583q253 244 598 244q350 0 600 -244t250 -583q0 -342 -248 -584q-250 -244 -598 -244q-345 0 -598 244q-252 243 -252 584h-4zM424 1909l467 366l465 -366l-176 -219l-289 190l-293 -190zM457 799q0 -180 127 -307t307 -127q182 0 309 127 q125 125 125 307t-125 307q-127 127 -309 127q-180 0 -307 -127t-127 -307z" />
<glyph unicode="&#xd5;" horiz-adv-x="2260" d="M43 799q0 340 252 583q253 244 598 244q350 0 600 -244t250 -583q0 -342 -248 -584q-250 -244 -598 -244q-345 0 -598 244q-252 243 -252 584h-4zM457 799q0 -180 127 -307t307 -127q182 0 309 127q125 125 125 307t-125 307q-127 127 -309 127q-180 0 -307 -127 t-127 -307zM479 1739q0 61 8 108q9 53 33 123t84 115q58 43 148 43q99 0 211 -80q36 -25 49 -25q15 0 18 15t0 51h273q0 -57 -9 -109q-10 -56 -32 -122q-24 -70 -84 -115q-58 -43 -148 -43q-99 0 -211 80q-34 24 -49 24t-18 -14q-3 -15 0 -51h-273z" />
<glyph unicode="&#xd6;" horiz-adv-x="2260" d="M43 799q0 340 252 583q253 244 598 244q350 0 600 -244t250 -583q0 -342 -248 -584q-250 -244 -598 -244q-345 0 -598 244q-252 243 -252 584h-4zM434 1894q0 80 60 140q59 59 141 59q84 0 141 -57q58 -58 58 -138q0 -83 -58 -141q-57 -57 -141 -57q-82 0 -141 59 q-58 58 -58 142zM457 799q0 -180 127 -307t307 -127q182 0 309 127q125 125 125 307t-125 307q-127 127 -309 127q-180 0 -307 -127t-127 -307zM948 1888q0 80 60 140q59 59 141 59q84 0 141 -57q58 -58 58 -138q0 -83 -58 -141q-57 -57 -141 -57q-82 0 -141 59 q-58 58 -58 141z" />
<glyph unicode="&#xd7;" horiz-adv-x="1681" d="M82 492l260 260l-260 260l264 262l258 -260l260 260l264 -262l-260 -260l260 -260l-264 -263l-260 258l-258 -258z" />
<glyph unicode="&#xd8;" horiz-adv-x="2258" d="M47 799h2q0 339 250 583t596 244q215 0 410 -104l59 73h346l-192 -239q225 -237 225 -559q0 -340 -250 -584t-596 -244q-219 0 -412 105l-59 -74h-346l190 238q-223 235 -223 561zM463 799q0 -135 69 -238l519 643q-82 29 -154 29q-180 0 -307 -127q-125 -125 -125 -307 h-2zM743 391q68 -26 154 -26q180 0 307 127t127 307h2q0 131 -69 237z" />
<glyph unicode="&#xd9;" horiz-adv-x="2140" d="M100 698v899h410v-874q0 -175 82 -266q83 -92 242 -92q160 0 243 92q84 93 84 266v874h408v-899q0 -317 -195 -524q-193 -205 -540 -205t-541 203q-193 202 -193 526zM469 1948l199 344l532 -379l-137 -238z" />
<glyph unicode="&#xda;" horiz-adv-x="2140" d="M100 698v899h410v-874q0 -175 82 -266q83 -92 242 -92q160 0 243 92q84 93 84 266v874h408v-899q0 -317 -195 -524q-193 -205 -540 -205t-541 203q-193 202 -193 526zM469 1913l532 379l199 -344l-594 -273z" />
<glyph unicode="&#xdb;" horiz-adv-x="2140" d="M100 698v899h410v-874q0 -175 82 -266q83 -92 242 -92q160 0 243 92q84 93 84 266v874h408v-899q0 -317 -195 -524q-193 -205 -540 -205t-541 203q-193 202 -193 526zM367 1909l467 366l464 -366l-176 -219l-288 190l-293 -190z" />
<glyph unicode="&#xdc;" horiz-adv-x="2140" d="M100 698v899h410v-874q0 -175 82 -266q83 -92 242 -92q160 0 243 92q84 93 84 266v874h408v-899q0 -317 -195 -524q-193 -205 -540 -205t-541 203q-193 202 -193 526zM377 1894q0 81 59 140t142 59q84 0 141 -57t57 -138q0 -84 -57 -141t-141 -57q-83 0 -142 59 q-57 57 -57 142zM891 1888q0 81 59 140t142 59q84 0 141 -57t57 -138q0 -84 -57 -141t-141 -57q-83 0 -142 59q-57 57 -57 141z" />
<glyph unicode="&#xdd;" horiz-adv-x="2142" d="M0 1597h481l353 -579l354 579h483l-633 -1011v-586h-407v586zM469 1913l532 379l199 -344l-594 -273z" />
<glyph unicode="&#xde;" horiz-adv-x="1978" d="M123 0v1599h409v-184h295q302 0 465 -178q164 -179 164 -436q0 -268 -162 -445q-163 -178 -467 -178h-295v-178h-409zM532 555h273q235 0 235 248q0 106 -57 172q-58 67 -178 67l-273 2v-489z" />
<glyph unicode="&#xdf;" horiz-adv-x="2281" d="M102 0v979q0 129 48 250q48 120 135 213q90 96 233 151q145 56 326 56q159 0 387 -41q224 -40 418 -105v-291l-320 -247q75 -13 141 -45q78 -38 140 -89q66 -54 110 -141q43 -85 43 -190q0 -222 -166 -375q-168 -154 -413 -154q-175 0 -340 74q-161 72 -264 215l327 209 q98 -131 260 -131q92 0 146 45q55 46 55 113q0 103 -115 147q-116 44 -299 -2l-202 279l407 317q-121 39 -319 39q-173 0 -262 -92q-91 -94 -91 -236v-948h-385z" />
<glyph unicode="&#xe0;" d="M0 0l647 1597h406l645 -1597h-447l-88 233h-628l-89 -233h-446zM485 1948l199 344l533 -379l-138 -238zM674 604h350l-174 469z" />
<glyph unicode="&#xe1;" d="M0 0l647 1597h406l645 -1597h-447l-88 233h-628l-89 -233h-446zM485 1913l533 379l199 -344l-594 -273zM674 604h350l-174 469z" />
<glyph unicode="&#xe2;" d="M0 0l647 1597h406l645 -1597h-447l-88 233h-628l-89 -233h-446zM383 1909l467 366l465 -366l-176 -219l-289 190l-293 -190zM674 604h350l-174 469z" />
<glyph unicode="&#xe3;" d="M0 0l647 1597h406l645 -1597h-447l-88 233h-628l-89 -233h-446zM436 1739q0 61 8 108q9 53 33 123t84 115q58 43 148 43q99 0 211 -80q36 -25 49 -25q15 0 18 15t0 51h273q0 -57 -9 -109q-10 -56 -32 -122q-24 -70 -84 -115q-58 -43 -148 -43q-99 0 -211 80 q-34 24 -49 24t-18 -14q-3 -15 0 -51h-273zM674 604h350l-174 469z" />
<glyph unicode="&#xe4;" d="M0 0l647 1597h406l645 -1597h-447l-88 233h-628l-89 -233h-446zM393 1894q0 80 60 140q59 59 141 59q84 0 141 -57q58 -58 58 -138q0 -83 -58 -141q-57 -57 -141 -57q-82 0 -141 59q-58 58 -58 142zM674 604h350l-174 469zM907 1888q0 80 60 140q59 59 141 59 q84 0 141 -57q58 -58 58 -138q0 -83 -58 -141q-57 -57 -141 -57q-82 0 -141 59q-58 58 -58 141z" />
<glyph unicode="&#xe5;" d="M0 0l645 1595q-133 103 -133 271l2 -2q0 140 98 241t238 101q139 0 240 -101q102 -102 102 -239q0 -168 -139 -271l645 -1595h-447l-88 233h-628l-89 -233h-446zM676 602h350l-174 469zM754 1864q0 -40 28 -68q29 -29 68 -29t68 29q28 28 28 68q0 39 -28 67 q-29 29 -68 29t-68 -29q-28 -28 -28 -67z" />
<glyph unicode="&#xe6;" horiz-adv-x="3094" d="M-20 0l1284 1597h1284v-397h-819v-229h673v-371h-673v-205h819v-395h-1227v233h-631l-184 -233h-526zM981 604h340v430z" />
<glyph unicode="&#xe7;" horiz-adv-x="2144" d="M41 805q0 341 252 584t598 243q245 0 446 -125q205 -128 312 -331l-373 -168q-55 101 -158 163t-225 62q-180 0 -307 -127t-127 -307t127 -307t307 -127q126 0 227 61q103 62 158 166l369 -162q-100 -196 -285 -317q-191 -125 -412 -140l-18 -96q86 -27 127 -92t41 -143 q0 -115 -74 -189t-207 -74q-52 0 -135 17q-66 14 -117 31l-41 16l107 246q99 -51 166 -51q75 0 75 47q0 23 -18 41q-17 17 -65 2l-99 88l66 168q-305 47 -510 280q-207 236 -207 541z" />
<glyph unicode="&#xe8;" horiz-adv-x="1896" d="M123 0v1597h1227v-397h-818v-229h672v-371h-672v-205h818v-395h-1227zM371 1948l198 344l533 -379l-137 -238z" />
<glyph unicode="&#xe9;" horiz-adv-x="1896" d="M123 0v1597h1227v-397h-818v-229h672v-371h-672v-205h818v-395h-1227zM371 1913l532 379l199 -344l-594 -273z" />
<glyph unicode="&#xea;" horiz-adv-x="1896" d="M123 0v1597h1227v-397h-818v-229h672v-371h-672v-205h818v-395h-1227zM268 1909l467 366l465 -366l-176 -219l-289 190l-293 -190z" />
<glyph unicode="&#xeb;" horiz-adv-x="1896" d="M123 0v1597h1227v-397h-818v-229h672v-371h-672v-205h818v-395h-1227zM279 1894q0 81 59 140t141 59q85 0 142 -57t57 -138q0 -84 -57 -141t-142 -57q-82 0 -141 59q-57 57 -57 142zM793 1888q0 81 59 140t141 59q85 0 142 -57t57 -138q0 -84 -57 -141t-142 -57 q-82 0 -141 59q-57 57 -57 141z" />
<glyph unicode="&#xec;" horiz-adv-x="1126" d="M-39 1948l199 344l532 -379l-137 -238zM123 0v1597h409v-1597h-409z" />
<glyph unicode="&#xed;" horiz-adv-x="1126" d="M-39 1913l533 379l198 -344l-594 -273zM123 0v1597h409v-1597h-409z" />
<glyph unicode="&#xee;" horiz-adv-x="1126" d="M-141 1909l467 366l465 -366l-177 -219l-288 190l-293 -190zM123 0v1597h409v-1597h-409z" />
<glyph unicode="&#xef;" horiz-adv-x="1126" d="M-131 1894q0 81 59 140t142 59q84 0 141 -57t57 -138q0 -84 -57 -141t-141 -57q-83 0 -142 59q-57 57 -57 142zM123 0v1597h409v-1597h-409zM383 1888q0 81 59 140t142 59q84 0 141 -57t57 -138q0 -84 -57 -141t-141 -57q-83 0 -142 59q-57 57 -57 141z" />
<glyph unicode="&#xf0;" horiz-adv-x="2156" d="M14 610v353h117v636h741q244 0 418 -110q176 -111 258 -289q84 -182 84 -399q0 -225 -82 -402q-82 -176 -258 -288q-176 -111 -418 -111h-741l-2 610h-117zM541 395h301q177 0 276 111t99 295q0 185 -99 293t-276 108h-301v-239h338v-355h-338v-213z" />
<glyph unicode="&#xf1;" horiz-adv-x="2185" d="M123 0v1597h348l713 -892v892h407v-1597h-346l-713 891v-891h-409zM444 1739q0 55 9 108q10 58 32 123q24 70 84 115q58 43 148 43q99 0 211 -80q36 -25 49 -25q15 0 18 15t0 51h273q0 -62 -8 -109q-9 -50 -33 -122q-24 -70 -84 -115q-58 -43 -148 -43q-99 0 -211 80 q-34 24 -49 24t-18 -14q-3 -15 0 -51h-273z" />
<glyph unicode="&#xf2;" horiz-adv-x="2260" d="M43 799q0 340 252 583q253 244 598 244q350 0 600 -244t250 -583q0 -342 -248 -584q-250 -244 -598 -244q-345 0 -598 244q-252 243 -252 584h-4zM457 799q0 -180 127 -307t307 -127q182 0 309 127q125 125 125 307t-125 307q-127 127 -309 127q-180 0 -307 -127 t-127 -307zM526 1948l199 344l532 -379l-137 -238z" />
<glyph unicode="&#xf3;" horiz-adv-x="2260" d="M43 799q0 340 252 583q253 244 598 244q350 0 600 -244t250 -583q0 -342 -248 -584q-250 -244 -598 -244q-345 0 -598 244q-252 243 -252 584h-4zM457 799q0 -180 127 -307t307 -127q182 0 309 127q125 125 125 307t-125 307q-127 127 -309 127q-180 0 -307 -127 t-127 -307zM528 1913l533 379l199 -344l-594 -273z" />
<glyph unicode="&#xf4;" horiz-adv-x="2260" d="M43 799q0 340 252 583q253 244 598 244q350 0 600 -244t250 -583q0 -342 -248 -584q-250 -244 -598 -244q-345 0 -598 244q-252 243 -252 584h-4zM424 1909l467 366l465 -366l-176 -219l-289 190l-293 -190zM457 799q0 -180 127 -307t307 -127q182 0 309 127 q125 125 125 307t-125 307q-127 127 -309 127q-180 0 -307 -127t-127 -307z" />
<glyph unicode="&#xf5;" horiz-adv-x="2260" d="M43 799q0 340 252 583q253 244 598 244q350 0 600 -244t250 -583q0 -342 -248 -584q-250 -244 -598 -244q-345 0 -598 244q-252 243 -252 584h-4zM457 799q0 -180 127 -307t307 -127q182 0 309 127q125 125 125 307t-125 307q-127 127 -309 127q-180 0 -307 -127 t-127 -307zM479 1739q0 61 8 108q9 53 33 123t84 115q58 43 148 43q99 0 211 -80q36 -25 49 -25q15 0 18 15t0 51h273q0 -57 -9 -109q-10 -56 -32 -122q-24 -70 -84 -115q-58 -43 -148 -43q-99 0 -211 80q-34 24 -49 24t-18 -14q-3 -15 0 -51h-273z" />
<glyph unicode="&#xf6;" horiz-adv-x="2260" d="M43 799q0 340 252 583q253 244 598 244q350 0 600 -244t250 -583q0 -342 -248 -584q-250 -244 -598 -244q-345 0 -598 244q-252 243 -252 584h-4zM434 1894q0 80 60 140q59 59 141 59q84 0 141 -57q58 -58 58 -138q0 -83 -58 -141q-57 -57 -141 -57q-82 0 -141 59 q-58 58 -58 142zM457 799q0 -180 127 -307t307 -127q182 0 309 127q125 125 125 307t-125 307q-127 127 -309 127q-180 0 -307 -127t-127 -307zM948 1888q0 80 60 140q59 59 141 59q84 0 141 -57q58 -58 58 -138q0 -83 -58 -141q-57 -57 -141 -57q-82 0 -141 59 q-58 58 -58 141z" />
<glyph unicode="&#xf7;" horiz-adv-x="1583" d="M80 563v371h952v-371h-952zM297 262q0 108 76 184t184 76t184 -76t76 -184t-76 -184t-184 -76t-184 76t-76 184zM297 1235q0 108 76 184t184 76t184 -76t76 -184t-76 -184t-184 -76t-184 76t-76 184z" />
<glyph unicode="&#xf8;" horiz-adv-x="2258" d="M47 799h2q0 339 250 583t596 244q215 0 410 -104l59 73h346l-192 -239q225 -237 225 -559q0 -340 -250 -584t-596 -244q-219 0 -412 105l-59 -74h-346l190 238q-223 235 -223 561zM463 799q0 -135 69 -238l519 643q-82 29 -154 29q-180 0 -307 -127q-125 -125 -125 -307 h-2zM743 391q68 -26 154 -26q180 0 307 127t127 307h2q0 131 -69 237z" />
<glyph unicode="&#xf9;" horiz-adv-x="2140" d="M100 698v899h410v-874q0 -175 82 -266q83 -92 242 -92q160 0 243 92q84 93 84 266v874h408v-899q0 -317 -195 -524q-193 -205 -540 -205t-541 203q-193 202 -193 526zM469 1948l199 344l532 -379l-137 -238z" />
<glyph unicode="&#xfa;" horiz-adv-x="2140" d="M100 698v899h410v-874q0 -175 82 -266q83 -92 242 -92q160 0 243 92q84 93 84 266v874h408v-899q0 -317 -195 -524q-193 -205 -540 -205t-541 203q-193 202 -193 526zM469 1913l532 379l199 -344l-594 -273z" />
<glyph unicode="&#xfb;" horiz-adv-x="2140" d="M100 698v899h410v-874q0 -175 82 -266q83 -92 242 -92q160 0 243 92q84 93 84 266v874h408v-899q0 -317 -195 -524q-193 -205 -540 -205t-541 203q-193 202 -193 526zM367 1909l467 366l464 -366l-176 -219l-288 190l-293 -190z" />
<glyph unicode="&#xfc;" horiz-adv-x="2140" d="M100 698v899h410v-874q0 -175 82 -266q83 -92 242 -92q160 0 243 92q84 93 84 266v874h408v-899q0 -317 -195 -524q-193 -205 -540 -205t-541 203q-193 202 -193 526zM377 1894q0 81 59 140t142 59q84 0 141 -57t57 -138q0 -84 -57 -141t-141 -57q-83 0 -142 59 q-57 57 -57 142zM891 1888q0 81 59 140t142 59q84 0 141 -57t57 -138q0 -84 -57 -141t-141 -57q-83 0 -142 59q-57 57 -57 141z" />
<glyph unicode="&#xfd;" horiz-adv-x="2142" d="M0 1597h481l353 -579l354 579h483l-633 -1011v-586h-407v586zM469 1913l532 379l199 -344l-594 -273z" />
<glyph unicode="&#xfe;" horiz-adv-x="1978" d="M123 0v1599h409v-184h295q302 0 465 -178q164 -179 164 -436q0 -268 -162 -445q-163 -178 -467 -178h-295v-178h-409zM532 555h273q235 0 235 248q0 106 -57 172q-58 67 -178 67l-273 2v-489z" />
<glyph unicode="&#xff;" horiz-adv-x="2142" d="M0 1597h481l353 -579l354 579h483l-633 -1011v-586h-407v586zM377 1894q0 81 59 140t142 59q84 0 141 -57t57 -138q0 -84 -57 -141t-141 -57q-83 0 -142 59q-57 57 -57 142zM891 1888q0 81 59 140t142 59q84 0 141 -57t57 -138q0 -84 -57 -141t-141 -57q-83 0 -142 59 q-57 57 -57 141z" />
<glyph unicode="&#x152;" horiz-adv-x="2875" d="M49 797q0 162 62 307t174 254q113 110 284 174q174 65 379 65h1383v-397h-818v-229h672v-371h-672v-205h818v-395h-1383q-412 0 -655 231q-244 232 -244 566zM463 797q0 -181 125 -291q126 -111 362 -111h156v805h-156q-237 0 -362 -110t-125 -291v-2z" />
<glyph unicode="&#x153;" horiz-adv-x="2875" d="M49 797q0 162 62 307t174 254q113 110 284 174q174 65 379 65h1383v-397h-818v-229h672v-371h-672v-205h818v-395h-1383q-412 0 -655 231q-244 232 -244 566zM463 797q0 -181 125 -291q126 -111 362 -111h156v805h-156q-237 0 -362 -110t-125 -291v-2z" />
<glyph unicode="&#x178;" horiz-adv-x="2142" d="M0 1597h481l353 -579l354 579h483l-633 -1011v-586h-407v586zM377 1894q0 81 59 140t142 59q84 0 141 -57t57 -138q0 -84 -57 -141t-141 -57q-83 0 -142 59q-57 57 -57 142zM891 1888q0 81 59 140t142 59q84 0 141 -57t57 -138q0 -84 -57 -141t-141 -57q-83 0 -142 59 q-57 57 -57 141z" />
<glyph unicode="&#x2c6;" horiz-adv-x="1480" d="M39 1909l467 366l465 -366l-176 -219l-289 190l-293 -190z" />
<glyph unicode="&#x2dc;" horiz-adv-x="1433" d="M68 1739q0 61 8 108q9 53 33 123t84 115q58 43 147 43q99 0 211 -80q36 -25 49 -25q15 0 18 15t0 51h273q0 -62 -8 -109q-9 -50 -33 -122q-24 -70 -84 -115q-58 -43 -148 -43q-98 0 -210 80q-34 24 -50 24q-15 0 -18 -14q-3 -15 0 -51h-272z" />
<glyph unicode="&#x2000;" horiz-adv-x="1146" />
<glyph unicode="&#x2001;" horiz-adv-x="2292" />
<glyph unicode="&#x2002;" horiz-adv-x="1146" />
<glyph unicode="&#x2003;" horiz-adv-x="2292" />
<glyph unicode="&#x2004;" horiz-adv-x="764" />
<glyph unicode="&#x2005;" horiz-adv-x="573" />
<glyph unicode="&#x2006;" horiz-adv-x="382" />
<glyph unicode="&#x2007;" horiz-adv-x="382" />
<glyph unicode="&#x2008;" horiz-adv-x="286" />
<glyph unicode="&#x2009;" horiz-adv-x="458" />
<glyph unicode="&#x200a;" horiz-adv-x="127" />
<glyph unicode="&#x2010;" horiz-adv-x="1325" d="M117 475v383h620v-383h-620z" />
<glyph unicode="&#x2011;" horiz-adv-x="1325" d="M117 475v383h620v-383h-620z" />
<glyph unicode="&#x2012;" horiz-adv-x="1325" d="M117 475v383h620v-383h-620z" />
<glyph unicode="&#x2013;" horiz-adv-x="1767" d="M117 475v383h1065v-383h-1065z" />
<glyph unicode="&#x2014;" horiz-adv-x="2093" d="M117 475v383h1390v-383h-1390z" />
<glyph unicode="&#x2018;" horiz-adv-x="1130" d="M55 1085q0 219 375 566l160 -156q-112 -121 -152 -197l29 -24q35 -35 47 -49q19 -22 37 -66t18 -92q0 -109 -75 -184q-76 -76 -185 -76q-107 0 -180 76q-74 77 -74 202z" />
<glyph unicode="&#x2019;" horiz-adv-x="1122" d="M74 938q109 118 151 197l-28 24q-35 35 -47 49q-19 22 -37 66q-19 46 -19 92q0 108 76 184t184 76q110 0 183 -76t73 -202q0 -220 -374 -566z" />
<glyph unicode="&#x201a;" horiz-adv-x="1132" d="M49 -207q112 121 152 197l-29 26q-28 25 -47 47t-37 66q-18 43 -18 92q0 110 75 185t185 75t182 -75q74 -77 74 -203q0 -219 -375 -565z" />
<glyph unicode="&#x201c;" horiz-adv-x="1679" d="M55 1085q0 219 375 566l160 -156q-112 -121 -152 -197l29 -24q35 -35 47 -49q19 -22 37 -66t18 -92q0 -109 -75 -184q-76 -76 -185 -76q-107 0 -180 76q-74 77 -74 202zM604 1085q0 219 375 566l160 -156q-112 -121 -152 -197l29 -24q35 -35 47 -49q19 -22 37 -66t18 -92 q0 -108 -76 -184t-184 -76q-107 0 -180 76q-74 77 -74 202z" />
<glyph unicode="&#x201d;" horiz-adv-x="1673" d="M74 938q109 118 151 197l-28 24q-35 35 -47 49q-19 22 -37 66q-19 46 -19 92q0 108 76 184t184 76q110 0 183 -76t73 -202q0 -220 -374 -566zM623 938q109 118 151 197l-29 24q-35 35 -47 49q-17 20 -36 66t-19 92q0 108 76 184t184 76q109 0 182 -76q74 -77 74 -202 q0 -220 -375 -566z" />
<glyph unicode="&#x201e;" horiz-adv-x="1683" d="M49 -207q112 121 152 197l-29 26q-28 25 -47 47t-37 66q-18 43 -18 92q0 110 75 185t185 75t182 -75q74 -77 74 -203q0 -219 -375 -565zM598 -207q112 121 152 197l-29 26q-28 25 -47 47t-37 66q-19 46 -19 92q0 109 76 185q75 75 185 75t182 -75q74 -77 74 -203 q0 -219 -375 -565z" />
<glyph unicode="&#x2022;" horiz-adv-x="1396" d="M131 666q0 133 98 227q101 96 230 96q130 0 231 -96q98 -94 98 -227q0 -136 -98 -234t-229 -98q-134 0 -228 98q-96 101 -96 234h-6z" />
<glyph unicode="&#x2026;" horiz-adv-x="2297" d="M70 223q0 110 75 185t185 75q109 0 184 -75q76 -76 76 -185q0 -108 -76 -184t-184 -76q-109 0 -185 76q-75 75 -75 184zM659 223q0 109 76 185q75 75 185 75q109 0 184 -75q76 -76 76 -185q0 -108 -76 -184t-184 -76q-109 0 -185 76t-76 184zM1241 223q0 109 76 185 q75 75 184 75q110 0 185 -75t75 -185q0 -109 -75 -184q-76 -76 -185 -76q-108 0 -184 76t-76 184z" />
<glyph unicode="&#x202f;" horiz-adv-x="458" />
<glyph unicode="&#x2039;" horiz-adv-x="1284" d="M98 590v317l580 514v-483l-213 -188l213 -191v-481z" />
<glyph unicode="&#x203a;" horiz-adv-x="1284" d="M135 78v483l213 189l-213 190v481l580 -512v-317z" />
<glyph unicode="&#x205f;" horiz-adv-x="573" />
<glyph unicode="&#x20ac;" horiz-adv-x="2334" d="M78 492v266h98q-2 10 -2 43v26h-96v267h151q94 235 314 387q216 149 481 149q245 0 446 -125q205 -128 312 -331l-373 -168q-55 101 -158 163t-225 62q-189 0 -321 -141h454v-267h-567v-6v-6v-6v-6q0 -33 2 -43h479v-267h-352q124 -124 307 -124q126 0 227 61 q103 62 158 166l365 -164q-109 -207 -310 -332t-446 -125q-258 0 -475 146t-311 375h-158z" />
<glyph unicode="&#x2122;" horiz-adv-x="2250" d="M84 1315v282h664v-282h-189v-397h-287v397h-188zM803 918v679h297l127 -231l131 231h295v-679h-285v237l-94 -166h-92l-92 164v-235h-287z" />
<glyph unicode="&#x25fc;" horiz-adv-x="1597" d="M0 0v1597h1597v-1597h-1597z" />
</font>
</defs>
</svg>
