<svg xmlns="http://www.w3.org/2000/svg" viewBox="0 0 2304.23 1347.73"><title>Start_page</title><g id="solid_BG" data-name="solid BG"><rect y="3.6" width="2304.23" height="1344.13" style="fill:#fff"/></g><g id="pattern"><rect x="968.07" y="497.11" width="373.37" height="373.37" style="fill:none;stroke:#000;stroke-miterlimit:10;stroke-width:4px"/><line x1="864.58" y1="975.3" x2="1447.59" y2="392.29" style="fill:none;stroke:#000;stroke-miterlimit:10;stroke-width:4px"/><line x1="866.88" y1="395.8" x2="1449.89" y2="978.81" style="fill:none;stroke:#000;stroke-miterlimit:10;stroke-width:4px"/><line x1="1933.73" y1="683.86" x2="384.09" y2="683.86" style="fill:none;stroke:#000;stroke-miterlimit:10;stroke-width:4px"/><line x1="1156.08" y1="1141.42" x2="1156.08" y2="226.29" style="fill:none;stroke:#000;stroke-miterlimit:10;stroke-width:4px"/><circle cx="1154.82" cy="683.74" r="186.74" style="fill:none;stroke:#000;stroke-miterlimit:10;stroke-width:4px"/><circle cx="1154.82" cy="497.11" r="186.74" style="fill:none;stroke:#000;stroke-miterlimit:10;stroke-width:4px"/><circle cx="1154.82" cy="870.48" r="186.74" style="fill:none;stroke:#000;stroke-miterlimit:10;stroke-width:4px"/><circle cx="1343.34" cy="681.95" r="186.74" style="fill:none;stroke:#000;stroke-miterlimit:10;stroke-width:4px"/><circle cx="970.43" cy="686.1" r="186.74" style="fill:none;stroke:#000;stroke-miterlimit:10;stroke-width:4px"/><rect x="1022.71" y="551.69" width="264.09" height="264.09" style="fill:none;stroke:#000;stroke-miterlimit:10;stroke-width:4px"/><rect x="975.42" y="497.84" width="264.09" height="264.09" transform="translate(817.06 -544.76) rotate(45)" style="fill:none;stroke:#000;stroke-miterlimit:10;stroke-width:4px"/><circle cx="345.42" cy="681.95" r="38.67" style="fill:none;stroke:#000;stroke-miterlimit:10;stroke-width:4px"/><circle cx="1971.35" cy="687.3" r="38.67" style="fill:none;stroke:#000;stroke-miterlimit:10;stroke-width:4px"/><circle cx="1155.62" cy="190.21" r="38.67" style="fill:none;stroke:#000;stroke-miterlimit:10;stroke-width:4px"/><circle cx="1155.62" cy="1183.18" r="38.67" style="fill:none;stroke:#000;stroke-miterlimit:10;stroke-width:4px"/><text x="47.29" y="53.85"></text></g></svg>