<svg xmlns="http://www.w3.org/2000/svg" viewBox="0 0 2266.45 1303.74"><title>MAP_02_large</title><g id="Layer_11" data-name="Layer 11"><rect x="58.45" width="2208" height="1242" style="fill:#fff"/></g><g id="Layer_2" data-name="Layer 2"><rect x="1127.09" y="23.48" width="58.67" height="1196.87" style="fill:#757575"/><rect x="1877.2" y="23.48" width="58.67" height="1196.87" style="fill:#757575"/><rect x="376.99" y="23.48" width="58.67" height="1196.87" style="fill:#757575"/></g><g id="Layer_3" data-name="Layer 3"><rect x="256.11" y="702.73" width="1798.63" height="41.16" style="fill:#757575"/><rect x="256.11" y="165.96" width="1798.63" height="41.16" style="fill:#757575"/></g><g id="Layer_4" data-name="Layer 4"><rect x="1125.21" y="424.05" width="516.18" height="41.16" transform="translate(997.12 1827.93) rotate(-90)" style="fill:#757575"/><rect x="1450.23" y="434.34" width="456.3" height="41.16" style="fill:#757575"/><rect x="1652.51" y="1040.52" width="234.9" height="41.16" style="fill:#757575"/></g><g id="locations"><circle cx="339.6" cy="243.44" r="30.73" style="fill:#fff;stroke:#000;stroke-miterlimit:10;stroke-width:2px"/><circle cx="470.89" cy="424.2" r="30.73" style="fill:#fff;stroke:#000;stroke-miterlimit:10;stroke-width:2px"/><circle cx="473.68" cy="550.8" r="30.73" style="fill:#fff;stroke:#000;stroke-miterlimit:10;stroke-width:2px"/><circle cx="562.36" cy="663.03" r="30.73" style="fill:#fff;stroke:#000;stroke-miterlimit:10;stroke-width:2px"/><circle cx="593.09" cy="782.62" r="30.73" style="fill:#fff;stroke:#000;stroke-miterlimit:10;stroke-width:2px"/><circle cx="800.51" cy="782.62" r="30.73" style="fill:#fff;stroke:#000;stroke-miterlimit:10;stroke-width:2px"/><circle cx="1087.99" cy="782.62" r="30.73" style="fill:#fff;stroke:#000;stroke-miterlimit:10;stroke-width:2px"/><circle cx="1230.46" cy="667.22" r="30.73" style="fill:#fff;stroke:#000;stroke-miterlimit:10;stroke-width:2px"/><circle cx="1341.18" cy="665.83" r="30.73" style="fill:#fff;stroke:#000;stroke-miterlimit:10;stroke-width:2px"/><circle cx="1840.89" cy="782.62" r="30.73" style="fill:#fff;stroke:#000;stroke-miterlimit:10;stroke-width:2px"/><circle cx="1758.66" cy="667.22" r="30.73" style="fill:#fff;stroke:#000;stroke-miterlimit:10;stroke-width:2px"/><circle cx="1697.2" cy="782.62" r="30.73" style="fill:#fff;stroke:#000;stroke-miterlimit:10;stroke-width:2px"/><circle cx="1972.18" cy="1030.37" r="30.73" style="fill:#fff;stroke:#000;stroke-miterlimit:10;stroke-width:2px"/><circle cx="1666.48" cy="1061.1" r="30.73" style="fill:#fff;stroke:#000;stroke-miterlimit:10;stroke-width:2px"/><circle cx="1840.89" cy="593.2" r="30.73" style="fill:#fff;stroke:#000;stroke-miterlimit:10;stroke-width:2px"/><circle cx="1838.09" cy="393.47" r="30.73" style="fill:#fff;stroke:#000;stroke-miterlimit:10;stroke-width:2px"/><circle cx="1838.09" cy="243.44" r="30.73" style="fill:#fff;stroke:#000;stroke-miterlimit:10;stroke-width:2px"/></g><g id="text"><text transform="translate(419.53 1119.56) rotate(-90)" style="font-size:36px;fill:#fff;font-family:Arial-BoldMT, Arial;font-weight:700">POLK ST</text><text transform="translate(1168.48 1119.56) rotate(-90)" style="font-size:36px;fill:#fff;font-family:Arial-BoldMT, Arial;font-weight:700">LARKIN ST</text><text transform="translate(1921.14 977.1) rotate(-90)" style="font-size:36px;fill:#fff;font-family:Arial-BoldMT, Arial;font-weight:700">HYDE ST</text><text transform="translate(720.9 198.72)" style="font-size:36px;fill:#fff;font-family:Arial-BoldMT, Arial;font-weight:700">UNION ST</text><text transform="translate(720.9 737.53)" style="font-size:36px;fill:#fff;font-family:Arial-BoldMT, Arial;font-weight:700">GREEN ST</text><text transform="translate(720.9 1269.07)" style="font-size:33.52105712890625px;fill:#fff;font-family:Arial-BoldMT, Arial;font-weight:700"><tspan style="letter-spacing:-0.074215826761761em">V</tspan><tspan x="19.87" y="0">ALLEJO ST</tspan></text><text transform="translate(511.17 444.03)" style="font-size:48px;font-family:Arial-BoldMT, Arial;font-weight:700">Alhambra<tspan x="221.39" y="0" style="fill:#fff"> </tspan></text><text x="58.45"></text><text transform="translate(1516.78 683.35)" style="font-size:48px;font-family:Arial-BoldMT, Arial;font-weight:700">My Nails</text><text transform="translate(1548.24 256.84)" style="font-size:48px;font-family:Arial-BoldMT, Arial;font-weight:700">Swensen<tspan x="208.08" y="0" style="letter-spacing:-0.037109375em">’</tspan><tspan x="219.63" y="0">s</tspan></text><text x="58.45"></text><text transform="translate(186.98 256.84)" style="font-size:48px;font-family:Arial-BoldMT, Arial;font-weight:700">Start</text></g><g id="Layer_8" data-name="Layer 8"><rect x="452.46" y="405.13" width="37.41" height="37.41" style="fill:none;stroke:#fff;stroke-miterlimit:10;stroke-width:2px"/><rect x="394" y="405.13" width="37.41" height="37.41" transform="translate(-120.37 415.97) rotate(-45)" style="fill:none;stroke:#fff;stroke-miterlimit:10;stroke-width:2px"/><circle cx="471.16" cy="423.84" r="12.75" style="fill:none;stroke:#fff;stroke-miterlimit:10;stroke-width:2px"/></g><g id="arrows"><line x1="370.33" y1="243.44" x2="372.33" y2="243.44" style="fill:none;stroke:#000;stroke-miterlimit:10;stroke-width:3px"/><line x1="376.3" y1="243.44" x2="469.7" y2="243.44" style="fill:none;stroke:#000;stroke-miterlimit:10;stroke-width:3px;stroke-dasharray:3.9742631912231445,3.9742631912231445"/><line x1="471.68" y1="243.44" x2="473.68" y2="243.44" style="fill:none;stroke:#000;stroke-miterlimit:10;stroke-width:3px"/><line x1="471.34" y1="357.04" x2="471.38" y2="355.04" style="fill:none;stroke:#000;stroke-miterlimit:10;stroke-width:3px"/><line x1="471.46" y1="350.98" x2="473.6" y2="247.46" style="fill:none;stroke:#000;stroke-miterlimit:10;stroke-width:3px;stroke-dasharray:4.060479640960693,4.060479640960693"/><line x1="473.64" y1="245.43" x2="473.68" y2="243.44" style="fill:none;stroke:#000;stroke-miterlimit:10;stroke-width:3px"/><polygon points="486.38 352.98 470.89 378.57 456.47 352.36 486.38 352.98"/><line x1="468.98" y1="487.88" x2="469.02" y2="485.88" style="fill:none;stroke:#000;stroke-miterlimit:10;stroke-width:3px"/><line x1="469.1" y1="481.74" x2="469.57" y2="458.99" style="fill:none;stroke:#000;stroke-miterlimit:10;stroke-width:3px;stroke-dasharray:4.137268543243408,4.137268543243408"/><line x1="469.62" y1="456.92" x2="469.66" y2="454.92" style="fill:none;stroke:#000;stroke-miterlimit:10;stroke-width:3px"/><polygon points="484.02 483.81 468.53 509.4 454.11 483.19 484.02 483.81"/><line x1="492.87" y1="666.78" x2="490.87" y2="666.74" style="fill:none;stroke:#000;stroke-miterlimit:10;stroke-width:3px"/><line x1="486.91" y1="666.65" x2="473.07" y2="666.37" style="fill:none;stroke:#000;stroke-miterlimit:10;stroke-width:3px;stroke-dasharray:3.9557085037231445,3.9557085037231445"/><line x1="471.1" y1="666.33" x2="469.1" y2="666.29" style="fill:none;stroke:#000;stroke-miterlimit:10;stroke-width:3px"/><polygon points="488.8 651.73 514.39 667.22 488.18 681.64 488.8 651.73"/><line x1="469.1" y1="666.29" x2="469.1" y2="581.53" style="fill:none;stroke:#000;stroke-miterlimit:10;stroke-width:3px;stroke-dasharray:4,4"/><line x1="592.14" y1="714.89" x2="592.18" y2="712.89" style="fill:none;stroke:#000;stroke-miterlimit:10;stroke-width:3px"/><line x1="592.26" y1="709.07" x2="593.01" y2="672.76" style="fill:none;stroke:#000;stroke-miterlimit:10;stroke-width:3px;stroke-dasharray:3.8229031562805176,3.8229031562805176"/><line x1="593.05" y1="670.85" x2="593.09" y2="668.85" style="fill:none;stroke:#000;stroke-miterlimit:10;stroke-width:3px"/><polygon points="607.19 710.83 591.7 736.42 577.27 710.21 607.19 710.83"/><line x1="735.78" y1="782.62" x2="733.78" y2="782.62" style="fill:none;stroke:#000;stroke-miterlimit:10;stroke-width:3px"/><line x1="729.78" y1="782.62" x2="627.82" y2="782.62" style="fill:none;stroke:#000;stroke-miterlimit:10;stroke-width:3px;stroke-dasharray:3.998495578765869,3.998495578765869"/><line x1="625.82" y1="782.62" x2="623.82" y2="782.62" style="fill:none;stroke:#000;stroke-miterlimit:10;stroke-width:3px"/><polygon points="731.4 767.66 757.31 782.62 731.4 797.58 731.4 767.66"/><line x1="1020.19" y1="782.62" x2="1018.19" y2="782.62" style="fill:none;stroke:#000;stroke-miterlimit:10;stroke-width:3px"/><line x1="1014.26" y1="782.62" x2="835.21" y2="782.62" style="fill:none;stroke:#000;stroke-miterlimit:10;stroke-width:3px;stroke-dasharray:3.9351325035095215,3.9351325035095215"/><line x1="833.24" y1="782.62" x2="831.24" y2="782.62" style="fill:none;stroke:#000;stroke-miterlimit:10;stroke-width:3px"/><polygon points="1015.82 767.66 1041.72 782.62 1015.82 797.58 1015.82 767.66"/><line x1="1235.59" y1="782.62" x2="1233.59" y2="782.62" style="fill:none;stroke:#000;stroke-miterlimit:10;stroke-width:3px"/><line x1="1229.47" y1="782.62" x2="1124.42" y2="782.62" style="fill:none;stroke:#000;stroke-miterlimit:10;stroke-width:3px;stroke-dasharray:4.119574546813965,4.119574546813965"/><line x1="1122.36" y1="782.62" x2="1120.36" y2="782.62" style="fill:none;stroke:#000;stroke-miterlimit:10;stroke-width:3px"/><line x1="1235.59" y1="724.25" x2="1235.59" y2="726.25" style="fill:none;stroke:#000;stroke-miterlimit:10;stroke-width:3px"/><line x1="1235.59" y1="730.44" x2="1235.59" y2="778.52" style="fill:none;stroke:#000;stroke-miterlimit:10;stroke-width:3px;stroke-dasharray:4.181687831878662,4.181687831878662"/><line x1="1235.59" y1="780.62" x2="1235.59" y2="782.62" style="fill:none;stroke:#000;stroke-miterlimit:10;stroke-width:3px"/><polygon points="1220.63 728.63 1235.59 702.73 1250.55 728.63 1220.63 728.63"/><line x1="1286.94" y1="667.25" x2="1284.94" y2="667.2" style="fill:none;stroke:#000;stroke-miterlimit:10;stroke-width:3px"/><line x1="1280.99" y1="667.12" x2="1267.15" y2="666.84" style="fill:none;stroke:#000;stroke-miterlimit:10;stroke-width:3px;stroke-dasharray:3.9557085037231445,3.9557085037231445"/><line x1="1265.17" y1="666.8" x2="1263.17" y2="666.75" style="fill:none;stroke:#000;stroke-miterlimit:10;stroke-width:3px"/><polygon points="1282.88 652.2 1308.47 667.69 1282.26 682.11 1282.88 652.2"/><line x1="1637.53" y1="782.15" x2="1635.53" y2="782.15" style="fill:none;stroke:#000;stroke-miterlimit:10;stroke-width:3px"/><line x1="1631.53" y1="782.15" x2="1345.18" y2="782.15" style="fill:none;stroke:#000;stroke-miterlimit:10;stroke-width:3px;stroke-dasharray:4.004821300506592,4.004821300506592"/><line x1="1343.18" y1="782.15" x2="1341.18" y2="782.15" style="fill:none;stroke:#000;stroke-miterlimit:10;stroke-width:3px"/><polygon points="1633.15 767.19 1659.06 782.15 1633.15 797.11 1633.15 767.19"/><line x1="1341.18" y1="781.97" x2="1341.18" y2="697.22" style="fill:none;stroke:#000;stroke-miterlimit:10;stroke-width:3px;stroke-dasharray:4,4"/><line x1="1760.4" y1="782.43" x2="1758.4" y2="782.43" style="fill:none;stroke:#000;stroke-miterlimit:10;stroke-width:3px"/><line x1="1754.34" y1="782.43" x2="1731.96" y2="782.43" style="fill:none;stroke:#000;stroke-miterlimit:10;stroke-width:3px;stroke-dasharray:4.06830358505249,4.06830358505249"/><line x1="1729.93" y1="782.43" x2="1727.93" y2="782.43" style="fill:none;stroke:#000;stroke-miterlimit:10;stroke-width:3px"/><line x1="1760.4" y1="724.07" x2="1760.4" y2="726.07" style="fill:none;stroke:#000;stroke-miterlimit:10;stroke-width:3px"/><line x1="1760.4" y1="730.25" x2="1760.4" y2="778.34" style="fill:none;stroke:#000;stroke-miterlimit:10;stroke-width:3px;stroke-dasharray:4.181687831878662,4.181687831878662"/><line x1="1760.4" y1="780.43" x2="1760.4" y2="782.43" style="fill:none;stroke:#000;stroke-miterlimit:10;stroke-width:3px"/><polygon points="1745.44 728.45 1760.4 702.54 1775.36 728.45 1745.44 728.45"/><line x1="1842.64" y1="669.46" x2="1840.64" y2="669.46" style="fill:none;stroke:#000;stroke-miterlimit:10;stroke-width:3px"/><line x1="1836.85" y1="669.46" x2="1793.28" y2="669.46" style="fill:none;stroke:#000;stroke-miterlimit:10;stroke-width:3px;stroke-dasharray:3.7887074947357178,3.7887074947357178"/><line x1="1791.39" y1="669.46" x2="1789.39" y2="669.46" style="fill:none;stroke:#000;stroke-miterlimit:10;stroke-width:3px"/><line x1="1841.24" y1="647.41" x2="1841.24" y2="649.41" style="fill:none;stroke:#000;stroke-miterlimit:10;stroke-width:3px"/><line x1="1841.24" y1="652.57" x2="1841.24" y2="663.64" style="fill:none;stroke:#000;stroke-miterlimit:10;stroke-width:3px;stroke-dasharray:3.1626670360565186,3.1626670360565186"/><line x1="1841.24" y1="665.22" x2="1841.24" y2="667.22" style="fill:none;stroke:#000;stroke-miterlimit:10;stroke-width:3px"/><polygon points="1826.28 651.79 1841.24 625.88 1856.2 651.79 1826.28 651.79"/><line x1="1839.85" y1="448.12" x2="1839.85" y2="450.12" style="fill:none;stroke:#000;stroke-miterlimit:10;stroke-width:3px"/><line x1="1839.85" y1="454.12" x2="1839.85" y2="556.08" style="fill:none;stroke:#000;stroke-miterlimit:10;stroke-width:3px;stroke-dasharray:3.998495578765869,3.998495578765869"/><line x1="1839.85" y1="558.08" x2="1839.85" y2="560.08" style="fill:none;stroke:#000;stroke-miterlimit:10;stroke-width:3px"/><polygon points="1824.89 452.49 1839.85 426.59 1854.8 452.49 1824.89 452.49"/><line x1="1838.09" y1="300.41" x2="1838.09" y2="302.41" style="fill:none;stroke:#000;stroke-miterlimit:10;stroke-width:3px"/><line x1="1838.09" y1="306.27" x2="1838.09" y2="358.37" style="fill:none;stroke:#000;stroke-miterlimit:10;stroke-width:3px;stroke-dasharray:3.8597664833068848,3.8597664833068848"/><line x1="1838.09" y1="360.3" x2="1838.09" y2="362.3" style="fill:none;stroke:#000;stroke-miterlimit:10;stroke-width:3px"/><polygon points="1823.14 304.78 1838.1 278.88 1853.05 304.78 1823.14 304.78"/><line x1="1873.02" y1="243.44" x2="1875.02" y2="243.44" style="fill:none;stroke:#000;stroke-miterlimit:10;stroke-width:3px"/><line x1="1878.99" y1="243.44" x2="1972.39" y2="243.44" style="fill:none;stroke:#000;stroke-miterlimit:10;stroke-width:3px;stroke-dasharray:3.9742631912231445,3.9742631912231445"/><line x1="1974.37" y1="243.44" x2="1976.37" y2="243.44" style="fill:none;stroke:#000;stroke-miterlimit:10;stroke-width:3px"/><line x1="1976.37" y1="978.11" x2="1976.37" y2="976.11" style="fill:none;stroke:#000;stroke-miterlimit:10;stroke-width:3px"/><line x1="1976.37" y1="972.12" x2="1976.37" y2="247.43" style="fill:none;stroke:#000;stroke-miterlimit:10;stroke-width:3px;stroke-dasharray:3.9927656650543213,3.9927656650543213"/><line x1="1976.37" y1="245.44" x2="1976.37" y2="243.44" style="fill:none;stroke:#000;stroke-miterlimit:10;stroke-width:3px"/><polygon points="1991.33 973.73 1976.37 999.64 1961.41 973.73 1991.33 973.73"/><line x1="1718.73" y1="1061.1" x2="1720.73" y2="1061.1" style="fill:none;stroke:#000;stroke-miterlimit:10;stroke-width:3px"/><line x1="1724.75" y1="1061.1" x2="1963.79" y2="1061.1" style="fill:none;stroke:#000;stroke-miterlimit:10;stroke-width:3px;stroke-dasharray:4.017471790313721,4.017471790313721"/><line x1="1965.8" y1="1061.1" x2="1967.8" y2="1061.1" style="fill:none;stroke:#000;stroke-miterlimit:10;stroke-width:3px"/><polygon points="1723.11 1076.05 1697.2 1061.1 1723.11 1046.14 1723.11 1076.05"/><line x1="1842.64" y1="1030.37" x2="1840.64" y2="1030.37" style="fill:none;stroke:#000;stroke-miterlimit:10;stroke-width:3px"/><line x1="1836.68" y1="1030.37" x2="1680.24" y2="1030.37" style="fill:none;stroke:#000;stroke-miterlimit:10;stroke-width:3px;stroke-dasharray:3.960386276245117,3.960386276245117"/><line x1="1678.26" y1="1030.37" x2="1676.26" y2="1030.37" style="fill:none;stroke:#000;stroke-miterlimit:10;stroke-width:3px"/><line x1="1842.64" y1="834.87" x2="1842.64" y2="836.87" style="fill:none;stroke:#000;stroke-miterlimit:10;stroke-width:3px"/><line x1="1842.64" y1="840.95" x2="1842.64" y2="1026.33" style="fill:none;stroke:#000;stroke-miterlimit:10;stroke-width:3px;stroke-dasharray:4.074374198913574,4.074374198913574"/><line x1="1842.64" y1="1028.37" x2="1842.64" y2="1030.37" style="fill:none;stroke:#000;stroke-miterlimit:10;stroke-width:3px"/><polygon points="1827.68 839.25 1842.64 813.34 1857.6 839.25 1827.68 839.25"/></g><g id="numbers"><text transform="translate(330.8 254.86)" style="font-size:33.52105712890625px;font-family:Arial-BoldMT, Arial;font-weight:700">1</text><text transform="translate(459.83 435.78)" style="font-size:33.52105712890625px;font-family:Arial-BoldMT, Arial;font-weight:700">2</text><text transform="translate(461.81 563.78)" style="font-size:33.52105712890625px;font-family:Arial-BoldMT, Arial;font-weight:700">3</text><text x="58.45"></text><text transform="translate(550.7 674.83)" style="font-size:33.52105712890625px;font-family:Arial-BoldMT, Arial;font-weight:700">4</text><text transform="translate(583.38 794.41)" style="font-size:33.52105712890625px;font-family:Arial-BoldMT, Arial;font-weight:700">5</text><text transform="translate(789.55 795.6)" style="font-size:33.52105712890625px;font-family:Arial-BoldMT, Arial;font-weight:700">6</text><text transform="translate(1078.7 795.6)" style="font-size:33.52105712890625px;font-family:Arial-BoldMT, Arial;font-weight:700">7</text><text transform="translate(1220.47 678.81)" style="font-size:33.52105712890625px;font-family:Arial-BoldMT, Arial;font-weight:700">8</text><text transform="translate(1331.3 678.81)" style="font-size:33.52105712890625px;font-family:Arial-BoldMT, Arial;font-weight:700">9</text><text transform="translate(1677.64 794.2)" style="font-size:33.52105712890625px;font-family:Arial-BoldMT, Arial;font-weight:700">10</text><text transform="translate(1740.71 679.05)" style="font-size:33.52105712890625px;font-family:Arial-BoldMT, Arial;font-weight:700"><tspan style="letter-spacing:-0.05517753714888139em">1</tspan><tspan x="16.79" y="0">1</tspan></text><text transform="translate(1819.94 606.18)" style="font-size:33.52105712890625px;font-family:Arial-BoldMT, Arial;font-weight:700">12</text><text transform="translate(1817.36 404.76)" style="font-size:33.52105712890625px;font-family:Arial-BoldMT, Arial;font-weight:700">13</text><text transform="translate(1818.54 254.86)" style="font-size:33.52105712890625px;font-family:Arial-BoldMT, Arial;font-weight:700">14</text><text transform="translate(1952.84 1042.16)" style="font-size:33.52105712890625px;font-family:Arial-BoldMT, Arial;font-weight:700">15</text><text transform="translate(1646.92 1072.89)" style="font-size:33.52105712890625px;font-family:Arial-BoldMT, Arial;font-weight:700">16</text><text transform="translate(1823.24 794.41)" style="font-size:33.52105712890625px;font-family:Arial-BoldMT, Arial;font-weight:700">17</text></g></svg>