<?xml version="1.0" encoding="utf-8"?>
<!-- Generator: Adobe Illustrator 17.1.0, SVG Export Plug-In . SVG Version: 6.00 Build 0)  -->
<!DOCTYPE svg PUBLIC "-//W3C//DTD SVG 1.1//EN" "http://www.w3.org/Graphics/SVG/1.1/DTD/svg11.dtd">
<svg version="1.1" xmlns="http://www.w3.org/2000/svg" xmlns:xlink="http://www.w3.org/1999/xlink" x="0px" y="0px"
	 viewBox="0 0 802 802" style="enable-background:new 0 0 802 802;" xml:space="preserve">
<style type="text/css">
	.st0{stroke:#000000;stroke-miterlimit:10;}
	.st1{display:none;}
	.st2{display:inline;fill:none;stroke:#FFFFFF;stroke-width:2;stroke-miterlimit:10;}
</style>
<g id="Layer_2">
	<g>
		<path class="st0" d="M747.9,599.2c-90.6-84.5-161.5-105.7-217.5-94.8c-113.6,22.2-127.7,169.8-250.7,194.1
			c-83.6,16.4-189-35.2-219.7-92.3c146.8,53.7,561.2-176.4,561.2-176.4"/>
		<path class="st0" d="M236.3,555.2l35-134.2l1.8-239.1l86.8-156.4l37.4-19.9c-27.9,120.7-10.7,192.8,26.7,235.8
			c76.1,87.2,210.9,25.6,293.5,120.1c56,64.2,64,181.2,29.9,236.4C720.4,443.9,314,200.2,314,200.2"/>
		<path class="st0" d="M196.9,565l60.7-53.6L270.7,399l-9.5-90.2l15.4-184.4l27.6-14.7l59.3,50.5l33.2,62.4l68.8,62.7l191.9,118.8
			l65.7,79.6L747.3,598l-95.5-84.4l-75.2-31l-95,27.2L321.4,616.3l-154.1,28.3l-65.1-12l-43.3-28.4c118.5-36.3,172.4-87.1,190.8-141
			c37.5-109.5-83.3-195.5-42.7-314.2C234.4,68.5,331.9,3,396.7,5C276.8,105.4,268.9,579.3,268.9,579.3"/>
	</g>
</g>
<g id="Layer_1" class="st1">
	<circle class="st2" cx="401" cy="401" r="400"/>
	<line class="st2" x1="58.9" y1="597.9" x2="396.7" y2="5"/>
	<line class="st2" x1="396.7" y1="5" x2="747.3" y2="597.9"/>
	<line class="st2" x1="747.3" y1="597.9" x2="58.9" y2="597.9"/>
	<line class="st2" x1="396.7" y1="5" x2="401" y2="597.9"/>
	<line class="st2" x1="58.9" y1="597.9" x2="572" y2="299.3"/>
	<line class="st2" x1="747.3" y1="597.9" x2="227.8" y2="301.5"/>
</g>
</svg>
