<?xml version="1.0" encoding="utf-8"?>
<!-- Generator: Adobe Illustrator 17.1.0, SVG Export Plug-In . SVG Version: 6.00 Build 0)  -->
<!DOCTYPE svg PUBLIC "-//W3C//DTD SVG 1.1//EN" "http://www.w3.org/Graphics/SVG/1.1/DTD/svg11.dtd">
<svg version="1.1" id="Layer_1" xmlns="http://www.w3.org/2000/svg" xmlns:xlink="http://www.w3.org/1999/xlink" x="0px" y="0px"
	 viewBox="0 265.9 595.3 310.5" enable-background="new 0 265.9 595.3 310.5" xml:space="preserve">
<g id="map">
	<circle fill="none" stroke="#000000" stroke-width="4" stroke-miterlimit="10" cx="15.3" cy="280.5" r="10.6"/>
	<circle fill="none" stroke="#000000" stroke-width="4" stroke-miterlimit="10" cx="60.6" cy="342" r="10.6"/>
	<circle fill="none" stroke="#000000" stroke-width="4" stroke-miterlimit="10" cx="61.4" cy="385.5" r="10.6"/>
	<circle fill="none" stroke="#000000" stroke-width="4" stroke-miterlimit="10" cx="91.9" cy="424.8" r="10.6"/>
	<circle fill="none" stroke="#000000" stroke-width="4" stroke-miterlimit="10" cx="102.4" cy="465.9" r="10.6"/>
	<circle fill="none" stroke="#000000" stroke-width="4" stroke-miterlimit="10" cx="173.7" cy="465.9" r="10.6"/>
	<circle fill="none" stroke="#000000" stroke-width="4" stroke-miterlimit="10" cx="272.6" cy="465.9" r="10.6"/>
	<circle fill="none" stroke="#000000" stroke-width="4" stroke-miterlimit="10" cx="321.6" cy="426.2" r="10.6"/>
	<circle fill="none" stroke="#000000" stroke-width="4" stroke-miterlimit="10" cx="359.7" cy="425.8" r="10.6"/>
	<circle fill="none" stroke="#000000" stroke-width="4" stroke-miterlimit="10" cx="531.5" cy="465.9" r="10.6"/>
	<circle fill="none" stroke="#000000" stroke-width="4" stroke-miterlimit="10" cx="503.2" cy="426.2" r="10.6"/>
	<circle fill="none" stroke="#000000" stroke-width="4" stroke-miterlimit="10" cx="482.1" cy="465.9" r="10.6"/>
	<circle fill="none" stroke="#000000" stroke-width="4" stroke-miterlimit="10" cx="578" cy="561.4" r="10.6"/>
	<circle fill="none" stroke="#000000" stroke-width="4" stroke-miterlimit="10" cx="471.5" cy="561.7" r="10.6"/>
	<circle fill="none" stroke="#000000" stroke-width="4" stroke-miterlimit="10" cx="531.5" cy="400.8" r="10.6"/>
	<circle fill="none" stroke="#000000" stroke-width="4" stroke-miterlimit="10" cx="530.5" cy="332.1" r="10.6"/>
	<circle fill="none" stroke="#000000" stroke-width="4" stroke-miterlimit="10" cx="530.5" cy="280.5" r="10.6"/>
	
		<line fill="none" stroke="#000000" stroke-width="5" stroke-miterlimit="10" stroke-dasharray="8,8" x1="25.8" y1="280.5" x2="61.1" y2="280.5"/>
	<g>
		<g>
			<line fill="none" stroke="#000000" stroke-width="5" stroke-miterlimit="10" x1="60.7" y1="331.4" x2="60.7" y2="330"/>
			
				<line fill="none" stroke="#000000" stroke-width="5" stroke-miterlimit="10" stroke-dasharray="8.3532,8.3532" x1="60.7" y1="327.2" x2="60.4" y2="282.7"/>
			<line fill="none" stroke="#000000" stroke-width="5" stroke-miterlimit="10" x1="60.4" y1="281.2" x2="60.4" y2="279.8"/>
		</g>
	</g>
	<g>
		<g>
			<line fill="none" stroke="#000000" stroke-width="5" stroke-miterlimit="10" x1="60.3" y1="375.1" x2="60.3" y2="373.7"/>
			
				<line fill="none" stroke="#000000" stroke-width="5" stroke-miterlimit="10" stroke-dasharray="8.2285,8.2285" x1="60.4" y1="370.9" x2="60.8" y2="355.4"/>
			<line fill="none" stroke="#000000" stroke-width="5" stroke-miterlimit="10" x1="60.8" y1="353.9" x2="60.9" y2="352.5"/>
		</g>
	</g>
	<g>
		<g>
			<line fill="none" stroke="#000000" stroke-width="5" stroke-miterlimit="10" x1="81.4" y1="426.3" x2="80" y2="426.3"/>
			
				<line fill="none" stroke="#000000" stroke-width="5" stroke-miterlimit="10" stroke-dasharray="7.8571,7.8571" x1="77.3" y1="426.3" x2="62.5" y2="426.3"/>
			<line fill="none" stroke="#000000" stroke-width="5" stroke-miterlimit="10" x1="61.1" y1="426.3" x2="59.8" y2="426.3"/>
		</g>
	</g>
	
		<line fill="none" stroke="#000000" stroke-width="5" stroke-miterlimit="10" stroke-dasharray="8,8" x1="60.6" y1="427.3" x2="60.6" y2="397.1"/>
	<g>
		<g>
			<line fill="none" stroke="#000000" stroke-width="5" stroke-miterlimit="10" x1="102.4" y1="455.2" x2="102.4" y2="453.8"/>
			
				<line fill="none" stroke="#000000" stroke-width="5" stroke-miterlimit="10" stroke-dasharray="8.2945,8.2945" x1="102.4" y1="451" x2="102.4" y2="429.6"/>
			<line fill="none" stroke="#000000" stroke-width="5" stroke-miterlimit="10" x1="102.4" y1="428.2" x2="102.4" y2="426.8"/>
		</g>
	</g>
	<g>
		<g>
			<line fill="none" stroke="#000000" stroke-width="5" stroke-miterlimit="10" x1="163.3" y1="465.9" x2="161.9" y2="465.9"/>
			
				<line fill="none" stroke="#000000" stroke-width="5" stroke-miterlimit="10" stroke-dasharray="8.1255,8.1255" x1="159.1" y1="465.9" x2="115.8" y2="465.9"/>
			<line fill="none" stroke="#000000" stroke-width="5" stroke-miterlimit="10" x1="114.4" y1="465.9" x2="113" y2="465.9"/>
		</g>
	</g>
	<g>
		<g>
			<line fill="none" stroke="#000000" stroke-width="5" stroke-miterlimit="10" x1="261.9" y1="465.9" x2="260.6" y2="465.9"/>
			
				<line fill="none" stroke="#000000" stroke-width="5" stroke-miterlimit="10" stroke-dasharray="8.0634,8.0634" x1="257.8" y1="465.9" x2="187.1" y2="465.9"/>
			<line fill="none" stroke="#000000" stroke-width="5" stroke-miterlimit="10" x1="185.7" y1="465.9" x2="184.3" y2="465.9"/>
		</g>
	</g>
	<g>
		<g>
			<line fill="none" stroke="#000000" stroke-width="5" stroke-miterlimit="10" x1="322.7" y1="436.8" x2="322.7" y2="438.2"/>
			
				<line fill="none" stroke="#000000" stroke-width="5" stroke-miterlimit="10" stroke-dasharray="8.4971,8.4971" x1="322.7" y1="441.1" x2="322.7" y2="463"/>
			<polyline fill="none" stroke="#000000" stroke-width="5" stroke-miterlimit="10" points="322.7,464.5 322.7,465.9 321.3,465.9 
							"/>
			
				<line fill="none" stroke="#000000" stroke-width="5" stroke-miterlimit="10" stroke-dasharray="8.1036,8.1036" x1="318.5" y1="465.9" x2="286.5" y2="465.9"/>
			<line fill="none" stroke="#000000" stroke-width="5" stroke-miterlimit="10" x1="285.1" y1="465.9" x2="283.7" y2="465.9"/>
		</g>
	</g>
	<g>
		<g>
			<line fill="none" stroke="#000000" stroke-width="5" stroke-miterlimit="10" x1="348.6" y1="426.3" x2="347.2" y2="426.3"/>
			
				<line fill="none" stroke="#000000" stroke-width="5" stroke-miterlimit="10" stroke-dasharray="7.5581,7.5581" x1="344.6" y1="426.3" x2="335.5" y2="426.1"/>
			<line fill="none" stroke="#000000" stroke-width="5" stroke-miterlimit="10" x1="334.2" y1="426.1" x2="332.9" y2="426.1"/>
		</g>
	</g>
	<g>
		<g>
			<line fill="none" stroke="#000000" stroke-width="5" stroke-miterlimit="10" x1="362.1" y1="436.5" x2="362.1" y2="437.9"/>
			
				<line fill="none" stroke="#000000" stroke-width="5" stroke-miterlimit="10" stroke-dasharray="8.5476,8.5476" x1="362.1" y1="440.9" x2="362.1" y2="462.9"/>
			<polyline fill="none" stroke="#000000" stroke-width="5" stroke-miterlimit="10" points="362.1,464.4 362.1,465.7 362.1,465.8 
				363.5,465.8 			"/>
			
				<line fill="none" stroke="#000000" stroke-width="5" stroke-miterlimit="10" stroke-dasharray="7.9457,7.9457" x1="366.2" y1="465.8" x2="468.6" y2="465.8"/>
			<line fill="none" stroke="#000000" stroke-width="5" stroke-miterlimit="10" x1="470" y1="465.8" x2="471.4" y2="465.8"/>
		</g>
	</g>
	<g>
		<g>
			<line fill="none" stroke="#000000" stroke-width="5" stroke-miterlimit="10" x1="504" y1="436.8" x2="504" y2="438.2"/>
			
				<line fill="none" stroke="#000000" stroke-width="5" stroke-miterlimit="10" stroke-dasharray="8.4927,8.4927" x1="504" y1="441.1" x2="503.9" y2="463"/>
			<polyline fill="none" stroke="#000000" stroke-width="5" stroke-miterlimit="10" points="503.9,464.5 503.9,465.8 502.5,465.8 
							"/>
			
				<line fill="none" stroke="#000000" stroke-width="5" stroke-miterlimit="10" stroke-dasharray="8.2612,8.2612" x1="499.7" y1="465.8" x2="495.5" y2="465.9"/>
			<line fill="none" stroke="#000000" stroke-width="5" stroke-miterlimit="10" x1="494" y1="465.9" x2="492.6" y2="465.9"/>
		</g>
	</g>
	<polyline fill="none" stroke="#000000" stroke-width="5" stroke-miterlimit="10" stroke-dasharray="8,8" points="531.6,412 
		531.6,426.2 532.1,427 513.8,427 	"/>
	<g>
		<g>
			<line fill="none" stroke="#000000" stroke-width="5" stroke-miterlimit="10" x1="530.5" y1="342.8" x2="530.5" y2="344.1"/>
			
				<line fill="none" stroke="#000000" stroke-width="5" stroke-miterlimit="10" stroke-dasharray="7.5303,7.5303" x1="530.5" y1="346.8" x2="531.2" y2="386.9"/>
			<line fill="none" stroke="#000000" stroke-width="5" stroke-miterlimit="10" x1="531.2" y1="388.2" x2="531.2" y2="389.5"/>
		</g>
	</g>
	<g>
		<g>
			<line fill="none" stroke="#000000" stroke-width="5" stroke-miterlimit="10" x1="530.5" y1="291.2" x2="530.5" y2="292.6"/>
			
				<line fill="none" stroke="#000000" stroke-width="5" stroke-miterlimit="10" stroke-dasharray="7.2548,7.2548" x1="530.5" y1="295.1" x2="530.5" y2="318.8"/>
			<line fill="none" stroke="#000000" stroke-width="5" stroke-miterlimit="10" x1="530.5" y1="320" x2="530.5" y2="321.4"/>
		</g>
	</g>
	<g>
		<g>
			<line fill="none" stroke="#000000" stroke-width="5" stroke-miterlimit="10" x1="474.9" y1="572" x2="476.2" y2="572"/>
			
				<line fill="none" stroke="#000000" stroke-width="5" stroke-miterlimit="10" stroke-dasharray="8.1072,8.1072" x1="479" y1="572" x2="572.4" y2="572"/>
			<line fill="none" stroke="#000000" stroke-width="5" stroke-miterlimit="10" x1="573.8" y1="572" x2="575.2" y2="572"/>
		</g>
	</g>
	<g>
		<g>
			<line fill="none" stroke="#000000" stroke-width="5" stroke-miterlimit="10" x1="532.1" y1="476.5" x2="532.1" y2="477.9"/>
			
				<line fill="none" stroke="#000000" stroke-width="5" stroke-miterlimit="10" stroke-dasharray="7.7416,7.7416" x1="532.1" y1="480.5" x2="532.1" y2="548.4"/>
			<polyline fill="none" stroke="#000000" stroke-width="5" stroke-miterlimit="10" points="532.1,549.7 532.1,551.1 530.7,551.1 
							"/>
			
				<line fill="none" stroke="#000000" stroke-width="5" stroke-miterlimit="10" stroke-dasharray="8.3356,8.3356" x1="527.9" y1="551.1" x2="477.7" y2="551.1"/>
			<line fill="none" stroke="#000000" stroke-width="5" stroke-miterlimit="10" x1="476.3" y1="551.1" x2="474.9" y2="551.1"/>
		</g>
	</g>
	<polyline fill="none" stroke="#000000" stroke-width="5" stroke-miterlimit="10" stroke-dasharray="8,8" points="577.9,550.8 
		577.9,280.5 541.2,280.5 	"/>
</g>
</svg>
