<?xml version="1.0" encoding="utf-8"?>
<!-- Generator: Adobe Illustrator 17.1.0, SVG Export Plug-In . SVG Version: 6.00 Build 0)  -->
<!DOCTYPE svg PUBLIC "-//W3C//DTD SVG 1.1//EN" "http://www.w3.org/Graphics/SVG/1.1/DTD/svg11.dtd">
<svg version="1.1" xmlns="http://www.w3.org/2000/svg" xmlns:xlink="http://www.w3.org/1999/xlink" x="0px" y="0px"
	 viewBox="0 0 1731.2 924.1" enable-background="new 0 0 1731.2 924.1" xml:space="preserve">
<g id="black_dots__x28_active_x29_">
	<circle cx="44.4" cy="53.7" r="30.7"/>
	<circle cx="175.7" cy="234.4" r="30.7"/>
	<circle cx="178.5" cy="361" r="30.7"/>
	<circle cx="267.2" cy="473.3" r="30.7"/>
	<circle cx="297.9" cy="592.8" r="30.7"/>
	<circle cx="505.3" cy="592.8" r="30.7"/>
	<circle cx="792.8" cy="592.8" r="30.7"/>
	<circle cx="935.3" cy="477.4" r="30.7"/>
	<circle cx="1046" cy="476.1" r="30.7"/>
	<circle cx="1545.7" cy="592.8" r="30.7"/>
	<circle cx="1463.5" cy="477.4" r="30.7"/>
	<circle cx="1402" cy="592.8" r="30.7"/>
	<circle cx="1681" cy="871.6" r="30.7"/>
	<circle cx="1371.3" cy="871.3" r="30.7"/>
	<circle cx="1545.7" cy="403.4" r="30.7"/>
	<circle cx="1542.9" cy="203.7" r="30.7"/>
	<circle cx="1542.9" cy="53.7" r="30.7"/>
</g>
<g id="map">
	<circle fill="none" stroke="#000000" stroke-width="4" stroke-miterlimit="10" cx="44.4" cy="53.7" r="30.7"/>
	<circle fill="none" stroke="#000000" stroke-width="4" stroke-miterlimit="10" cx="176.1" cy="232.4" r="30.7"/>
	<circle fill="none" stroke="#000000" stroke-width="4" stroke-miterlimit="10" cx="178.5" cy="359" r="30.7"/>
	<circle fill="none" stroke="#000000" stroke-width="4" stroke-miterlimit="10" cx="267.2" cy="473.3" r="30.7"/>
	<circle fill="none" stroke="#000000" stroke-width="4" stroke-miterlimit="10" cx="297.9" cy="592.8" r="30.7"/>
	<circle fill="none" stroke="#000000" stroke-width="4" stroke-miterlimit="10" cx="505.3" cy="592.8" r="30.7"/>
	<circle fill="none" stroke="#000000" stroke-width="4" stroke-miterlimit="10" cx="792.8" cy="592.8" r="30.7"/>
	<circle fill="none" stroke="#000000" stroke-width="4" stroke-miterlimit="10" cx="935.3" cy="477.4" r="30.7"/>
	<circle fill="none" stroke="#000000" stroke-width="4" stroke-miterlimit="10" cx="1046" cy="476.1" r="30.7"/>
	<circle fill="none" stroke="#000000" stroke-width="4" stroke-miterlimit="10" cx="1545.7" cy="592.8" r="30.7"/>
	<circle fill="none" stroke="#000000" stroke-width="4" stroke-miterlimit="10" cx="1463.5" cy="477.4" r="30.7"/>
	<circle fill="none" stroke="#000000" stroke-width="4" stroke-miterlimit="10" cx="1402" cy="592.8" r="30.7"/>
	<circle fill="none" stroke="#000000" stroke-width="4" stroke-miterlimit="10" cx="1681" cy="870.6" r="30.7"/>
	<circle fill="none" stroke="#000000" stroke-width="4" stroke-miterlimit="10" cx="1371.3" cy="871.3" r="30.7"/>
	<circle fill="none" stroke="#000000" stroke-width="4" stroke-miterlimit="10" cx="1545.7" cy="403.4" r="30.7"/>
	<circle fill="none" stroke="#000000" stroke-width="4" stroke-miterlimit="10" cx="1542.9" cy="203.7" r="30.7"/>
	<circle fill="none" stroke="#000000" stroke-width="4" stroke-miterlimit="10" cx="1542.9" cy="53.7" r="30.7"/>
	
		<line fill="none" stroke="#000000" stroke-width="5" stroke-miterlimit="10" stroke-dasharray="8,8" x1="75.1" y1="53.7" x2="177.8" y2="53.7"/>
	<g>
		<g>
			<line fill="none" stroke="#000000" stroke-width="5" stroke-miterlimit="10" x1="176.6" y1="201.7" x2="176.6" y2="197.7"/>
			
				<line fill="none" stroke="#000000" stroke-width="5" stroke-miterlimit="10" stroke-dasharray="8.3532,8.3532" x1="176.5" y1="189.4" x2="175.7" y2="59.9"/>
			<line fill="none" stroke="#000000" stroke-width="5" stroke-miterlimit="10" x1="175.7" y1="55.7" x2="175.6" y2="51.7"/>
		</g>
	</g>
	<g>
		<g>
			<line fill="none" stroke="#000000" stroke-width="5" stroke-miterlimit="10" x1="175.3" y1="328.7" x2="175.4" y2="324.7"/>
			
				<line fill="none" stroke="#000000" stroke-width="5" stroke-miterlimit="10" stroke-dasharray="8.2285,8.2285" x1="175.6" y1="316.5" x2="176.8" y2="271.3"/>
			<line fill="none" stroke="#000000" stroke-width="5" stroke-miterlimit="10" x1="176.9" y1="267.1" x2="177" y2="263.1"/>
		</g>
	</g>
	<g>
		<g>
			<line fill="none" stroke="#000000" stroke-width="5" stroke-miterlimit="10" x1="236.8" y1="477.7" x2="232.8" y2="477.7"/>
			
				<line fill="none" stroke="#000000" stroke-width="5" stroke-miterlimit="10" stroke-dasharray="7.8571,7.8571" x1="224.9" y1="477.7" x2="181.7" y2="477.7"/>
			<line fill="none" stroke="#000000" stroke-width="5" stroke-miterlimit="10" x1="177.8" y1="477.7" x2="173.8" y2="477.7"/>
		</g>
	</g>
	
		<line fill="none" stroke="#000000" stroke-width="5" stroke-miterlimit="10" stroke-dasharray="8,8" x1="176.1" y1="480.5" x2="176.1" y2="392.7"/>
	<g>
		<g>
			<line fill="none" stroke="#000000" stroke-width="5" stroke-miterlimit="10" x1="297.9" y1="561.7" x2="297.9" y2="557.7"/>
			
				<line fill="none" stroke="#000000" stroke-width="5" stroke-miterlimit="10" stroke-dasharray="8.2945,8.2945" x1="297.9" y1="549.4" x2="297.9" y2="487.2"/>
			<line fill="none" stroke="#000000" stroke-width="5" stroke-miterlimit="10" x1="297.9" y1="483.1" x2="297.9" y2="479.1"/>
		</g>
	</g>
	<g>
		<g>
			<line fill="none" stroke="#000000" stroke-width="5" stroke-miterlimit="10" x1="474.8" y1="592.8" x2="470.8" y2="592.8"/>
			
				<line fill="none" stroke="#000000" stroke-width="5" stroke-miterlimit="10" stroke-dasharray="8.1255,8.1255" x1="462.6" y1="592.8" x2="336.7" y2="592.8"/>
			<line fill="none" stroke="#000000" stroke-width="5" stroke-miterlimit="10" x1="332.6" y1="592.8" x2="328.6" y2="592.8"/>
		</g>
	</g>
	<g>
		<g>
			<line fill="none" stroke="#000000" stroke-width="5" stroke-miterlimit="10" x1="761.8" y1="592.8" x2="757.8" y2="592.8"/>
			
				<line fill="none" stroke="#000000" stroke-width="5" stroke-miterlimit="10" stroke-dasharray="8.0634,8.0634" x1="749.7" y1="592.8" x2="544.1" y2="592.8"/>
			<line fill="none" stroke="#000000" stroke-width="5" stroke-miterlimit="10" x1="540.1" y1="592.8" x2="536.1" y2="592.8"/>
		</g>
	</g>
	<g>
		<g>
			<line fill="none" stroke="#000000" stroke-width="5" stroke-miterlimit="10" x1="938.6" y1="508.2" x2="938.6" y2="512.2"/>
			
				<line fill="none" stroke="#000000" stroke-width="5" stroke-miterlimit="10" stroke-dasharray="8.4971,8.4971" x1="938.6" y1="520.7" x2="938.5" y2="584.4"/>
			<polyline fill="none" stroke="#000000" stroke-width="5" stroke-miterlimit="10" points="938.5,588.7 938.5,592.7 934.5,592.7 
							"/>
			
				<line fill="none" stroke="#000000" stroke-width="5" stroke-miterlimit="10" stroke-dasharray="8.1036,8.1036" x1="926.4" y1="592.7" x2="833.2" y2="592.8"/>
			<line fill="none" stroke="#000000" stroke-width="5" stroke-miterlimit="10" x1="829.2" y1="592.8" x2="825.2" y2="592.8"/>
		</g>
	</g>
	<g>
		<g>
			<line fill="none" stroke="#000000" stroke-width="5" stroke-miterlimit="10" x1="1013.8" y1="477.7" x2="1009.8" y2="477.7"/>
			
				<line fill="none" stroke="#000000" stroke-width="5" stroke-miterlimit="10" stroke-dasharray="7.5581,7.5581" x1="1002.2" y1="477.5" x2="975.8" y2="477.1"/>
			<line fill="none" stroke="#000000" stroke-width="5" stroke-miterlimit="10" x1="972" y1="477" x2="968" y2="477"/>
		</g>
	</g>
	<g>
		<g>
			<line fill="none" stroke="#000000" stroke-width="5" stroke-miterlimit="10" x1="1053" y1="507.4" x2="1053" y2="511.4"/>
			
				<line fill="none" stroke="#000000" stroke-width="5" stroke-miterlimit="10" stroke-dasharray="8.5476,8.5476" x1="1053" y1="520" x2="1053" y2="584.1"/>
			<polyline fill="none" stroke="#000000" stroke-width="5" stroke-miterlimit="10" points="1053,588.4 1053,592.2 1053,592.4 
				1057,592.4 			"/>
			
				<line fill="none" stroke="#000000" stroke-width="5" stroke-miterlimit="10" stroke-dasharray="7.9457,7.9457" x1="1064.9" y1="592.4" x2="1362.9" y2="592.4"/>
			<line fill="none" stroke="#000000" stroke-width="5" stroke-miterlimit="10" x1="1366.9" y1="592.4" x2="1370.9" y2="592.4"/>
		</g>
	</g>
	<g>
		<g>
			<line fill="none" stroke="#000000" stroke-width="5" stroke-miterlimit="10" x1="1465.6" y1="508.2" x2="1465.6" y2="512.2"/>
			
				<line fill="none" stroke="#000000" stroke-width="5" stroke-miterlimit="10" stroke-dasharray="8.4927,8.4927" x1="1465.6" y1="520.7" x2="1465.5" y2="584.4"/>
			<polyline fill="none" stroke="#000000" stroke-width="5" stroke-miterlimit="10" points="1465.5,588.6 1465.5,592.6 
				1461.5,592.6 			"/>
			
				<line fill="none" stroke="#000000" stroke-width="5" stroke-miterlimit="10" stroke-dasharray="8.2612,8.2612" x1="1453.3" y1="592.6" x2="1440.9" y2="592.7"/>
			<line fill="none" stroke="#000000" stroke-width="5" stroke-miterlimit="10" x1="1436.7" y1="592.7" x2="1432.7" y2="592.7"/>
		</g>
	</g>
	<polyline fill="none" stroke="#000000" stroke-width="5" stroke-miterlimit="10" stroke-dasharray="8,8" points="1546.1,436.1 
		1546.1,477.4 1547.5,479.7 1494.2,479.7 	"/>
	<g>
		<g>
			<line fill="none" stroke="#000000" stroke-width="5" stroke-miterlimit="10" x1="1542.8" y1="234.7" x2="1542.8" y2="238.7"/>
			
				<line fill="none" stroke="#000000" stroke-width="5" stroke-miterlimit="10" stroke-dasharray="7.5303,7.5303" x1="1542.9" y1="246.3" x2="1544.7" y2="363"/>
			<line fill="none" stroke="#000000" stroke-width="5" stroke-miterlimit="10" x1="1544.7" y1="366.7" x2="1544.8" y2="370.7"/>
		</g>
	</g>
	<g>
		<g>
			<line fill="none" stroke="#000000" stroke-width="5" stroke-miterlimit="10" x1="1542.9" y1="84.7" x2="1542.9" y2="88.7"/>
			
				<line fill="none" stroke="#000000" stroke-width="5" stroke-miterlimit="10" stroke-dasharray="7.2548,7.2548" x1="1542.9" y1="96" x2="1542.9" y2="164.9"/>
			<line fill="none" stroke="#000000" stroke-width="5" stroke-miterlimit="10" x1="1542.9" y1="168.5" x2="1542.9" y2="172.5"/>
		</g>
	</g>
	<g>
		<g>
			<line fill="none" stroke="#000000" stroke-width="5" stroke-miterlimit="10" x1="1381" y1="901.3" x2="1385" y2="901.3"/>
			
				<line fill="none" stroke="#000000" stroke-width="5" stroke-miterlimit="10" stroke-dasharray="8.1072,8.1072" x1="1393.1" y1="901.3" x2="1664.7" y2="901.3"/>
			<line fill="none" stroke="#000000" stroke-width="5" stroke-miterlimit="10" x1="1668.8" y1="901.3" x2="1672.8" y2="901.3"/>
		</g>
	</g>
	<g>
		<g>
			<line fill="none" stroke="#000000" stroke-width="5" stroke-miterlimit="10" x1="1547.5" y1="623.6" x2="1547.5" y2="627.6"/>
			
				<line fill="none" stroke="#000000" stroke-width="5" stroke-miterlimit="10" stroke-dasharray="7.7416,7.7416" x1="1547.5" y1="635.3" x2="1547.5" y2="832.7"/>
			<polyline fill="none" stroke="#000000" stroke-width="5" stroke-miterlimit="10" points="1547.5,836.6 1547.5,840.6 
				1543.5,840.6 			"/>
			
				<line fill="none" stroke="#000000" stroke-width="5" stroke-miterlimit="10" stroke-dasharray="8.3356,8.3356" x1="1535.1" y1="840.6" x2="1389.2" y2="840.6"/>
			<line fill="none" stroke="#000000" stroke-width="5" stroke-miterlimit="10" x1="1385.1" y1="840.6" x2="1381.1" y2="840.6"/>
		</g>
	</g>
	<polyline fill="none" stroke="#000000" stroke-width="5" stroke-miterlimit="10" stroke-dasharray="8,8" points="1680.8,839.7 
		1680.8,53.7 1573.8,53.7 	"/>
</g>
</svg>
