<?xml version="1.0" encoding="utf-8"?>
<!-- Generator: Adobe Illustrator 17.1.0, SVG Export Plug-In . SVG Version: 6.00 Build 0)  -->
<!DOCTYPE svg PUBLIC "-//W3C//DTD SVG 1.1//EN" "http://www.w3.org/Graphics/SVG/1.1/DTD/svg11.dtd">
<svg version="1.1" id="Layer_1" xmlns="http://www.w3.org/2000/svg" xmlns:xlink="http://www.w3.org/1999/xlink" x="0px" y="0px"
	 viewBox="0 0 1720 908" style="enable-background:new 0 0 1720 908;" xml:space="preserve">
<style type="text/css">
	.st0{fill:none;stroke:#010101;stroke-width:4;stroke-miterlimit:10;}
	.st1{fill:none;stroke:#010101;stroke-width:5;stroke-miterlimit:10;stroke-dasharray:8,8;}
	.st2{fill:none;stroke:#010101;stroke-width:5;stroke-miterlimit:10;}
	.st3{fill:none;stroke:#010101;stroke-width:5;stroke-miterlimit:10;stroke-dasharray:8.3532,8.3532;}
	.st4{fill:none;stroke:#010101;stroke-width:5;stroke-miterlimit:10;stroke-dasharray:8.2285,8.2285;}
	.st5{fill:none;stroke:#010101;stroke-width:5;stroke-miterlimit:10;stroke-dasharray:7.8571,7.8571;}
	.st6{fill:none;stroke:#010101;stroke-width:5;stroke-miterlimit:10;stroke-dasharray:8.2945,8.2945;}
	.st7{fill:none;stroke:#010101;stroke-width:5;stroke-miterlimit:10;stroke-dasharray:8.1255,8.1255;}
	.st8{fill:none;stroke:#010101;stroke-width:5;stroke-miterlimit:10;stroke-dasharray:8.0634,8.0634;}
	.st9{fill:none;stroke:#010101;stroke-width:5;stroke-miterlimit:10;stroke-dasharray:8.4971,8.4971;}
	.st10{fill:none;stroke:#010101;stroke-width:5;stroke-miterlimit:10;stroke-dasharray:8.1036,8.1036;}
	.st11{fill:none;stroke:#010101;stroke-width:5;stroke-miterlimit:10;stroke-dasharray:7.5581,7.5581;}
	.st12{fill:none;stroke:#010101;stroke-width:5;stroke-miterlimit:10;stroke-dasharray:8.5476,8.5476;}
	.st13{fill:none;stroke:#010101;stroke-width:5;stroke-miterlimit:10;stroke-dasharray:7.9457,7.9457;}
	.st14{fill:none;stroke:#010101;stroke-width:5;stroke-miterlimit:10;stroke-dasharray:8.4927,8.4927;}
	.st15{fill:none;stroke:#010101;stroke-width:5;stroke-miterlimit:10;stroke-dasharray:8.2612,8.2612;}
	.st16{fill:none;stroke:#010101;stroke-width:5;stroke-miterlimit:10;stroke-dasharray:7.5303,7.5303;}
	.st17{fill:none;stroke:#010101;stroke-width:5;stroke-miterlimit:10;stroke-dasharray:7.2548,7.2548;}
	.st18{fill:none;stroke:#010101;stroke-width:5;stroke-miterlimit:10;stroke-dasharray:8.1072,8.1072;}
	.st19{fill:none;stroke:#010101;stroke-width:5;stroke-miterlimit:10;stroke-dasharray:7.7416,7.7416;}
	.st20{fill:none;stroke:#010101;stroke-width:5;stroke-miterlimit:10;stroke-dasharray:8.3356,8.3356;}
</style>
<circle class="st0" cx="43.1" cy="47.4" r="30.7"/>
<circle class="st0" cx="174.9" cy="226.2" r="30.7"/>
<circle class="st0" cx="177.2" cy="352.8" r="30.7"/>
<circle class="st0" cx="265.9" cy="467" r="30.7"/>
<circle class="st0" cx="296.6" cy="586.6" r="30.7"/>
<circle class="st0" cx="504.1" cy="586.6" r="30.7"/>
<circle class="st0" cx="791.5" cy="586.6" r="30.7"/>
<circle class="st0" cx="934" cy="471.2" r="30.7"/>
<circle class="st0" cx="1044.7" cy="469.8" r="30.7"/>
<circle class="st0" cx="1544.4" cy="586.6" r="30.7"/>
<circle class="st0" cx="1462.2" cy="471.2" r="30.7"/>
<circle class="st0" cx="1400.7" cy="586.6" r="30.7"/>
<circle class="st0" cx="1679.7" cy="864.4" r="30.7"/>
<circle class="st0" cx="1370" cy="865.1" r="30.7"/>
<circle class="st0" cx="1544.4" cy="397.2" r="30.7"/>
<circle class="st0" cx="1541.6" cy="197.5" r="30.7"/>
<circle class="st0" cx="1541.6" cy="47.4" r="30.7"/>
<line class="st1" x1="73.9" y1="47.4" x2="176.5" y2="47.4"/>
<g>
	<g>
		<line class="st2" x1="175.4" y1="195.5" x2="175.3" y2="191.5"/>
		<line class="st3" x1="175.3" y1="183.1" x2="174.4" y2="53.7"/>
		<line class="st2" x1="174.4" y1="49.5" x2="174.4" y2="45.5"/>
	</g>
</g>
<g>
	<g>
		<line class="st2" x1="174" y1="322.5" x2="174.1" y2="318.5"/>
		<line class="st4" x1="174.3" y1="310.3" x2="175.5" y2="265"/>
		<line class="st2" x1="175.6" y1="260.9" x2="175.7" y2="256.9"/>
	</g>
</g>
<g>
	<g>
		<line class="st2" x1="235.5" y1="471.5" x2="231.5" y2="471.5"/>
		<line class="st5" x1="223.6" y1="471.5" x2="180.4" y2="471.5"/>
		<line class="st2" x1="176.5" y1="471.5" x2="172.5" y2="471.5"/>
	</g>
</g>
<line class="st1" x1="174.9" y1="474.3" x2="174.9" y2="386.5"/>
<g>
	<g>
		<line class="st2" x1="296.6" y1="555.5" x2="296.6" y2="551.5"/>
		<line class="st6" x1="296.6" y1="543.2" x2="296.6" y2="481"/>
		<line class="st2" x1="296.6" y1="476.8" x2="296.6" y2="472.8"/>
	</g>
</g>
<g>
	<g>
		<line class="st2" x1="473.5" y1="586.6" x2="469.5" y2="586.6"/>
		<line class="st7" x1="461.4" y1="586.6" x2="335.4" y2="586.6"/>
		<line class="st2" x1="331.4" y1="586.6" x2="327.4" y2="586.6"/>
	</g>
</g>
<g>
	<g>
		<line class="st2" x1="760.5" y1="586.6" x2="756.5" y2="586.6"/>
		<line class="st8" x1="748.4" y1="586.6" x2="542.8" y2="586.6"/>
		<line class="st2" x1="538.8" y1="586.6" x2="534.8" y2="586.6"/>
	</g>
</g>
<g>
	<g>
		<line class="st2" x1="937.4" y1="502" x2="937.4" y2="506"/>
		<line class="st9" x1="937.4" y1="514.5" x2="937.3" y2="578.2"/>
		<polyline class="st2" points="937.3,582.4 937.3,586.4 933.3,586.4 		"/>
		<line class="st10" x1="925.2" y1="586.5" x2="832" y2="586.6"/>
		<line class="st2" x1="827.9" y1="586.6" x2="823.9" y2="586.6"/>
	</g>
</g>
<g>
	<g>
		<line class="st2" x1="1012.5" y1="471.5" x2="1008.5" y2="471.4"/>
		<line class="st11" x1="1000.9" y1="471.3" x2="974.5" y2="470.9"/>
		<line class="st2" x1="970.7" y1="470.8" x2="966.7" y2="470.8"/>
	</g>
</g>
<g>
	<g>
		<line class="st2" x1="1051.7" y1="501.2" x2="1051.7" y2="505.2"/>
		<line class="st12" x1="1051.7" y1="513.8" x2="1051.7" y2="577.9"/>
		<polyline class="st2" points="1051.7,582.1 1051.7,586 1051.7,586.1 1055.7,586.1 		"/>
		<line class="st13" x1="1063.7" y1="586.1" x2="1361.6" y2="586.1"/>
		<line class="st2" x1="1365.6" y1="586.1" x2="1369.6" y2="586.1"/>
	</g>
</g>
<g>
	<g>
		<line class="st2" x1="1464.3" y1="502" x2="1464.3" y2="506"/>
		<line class="st14" x1="1464.3" y1="514.5" x2="1464.3" y2="578.2"/>
		<polyline class="st2" points="1464.3,582.4 1464.3,586.4 1460.3,586.4 		"/>
		<line class="st15" x1="1452" y1="586.4" x2="1439.6" y2="586.4"/>
		<line class="st2" x1="1435.5" y1="586.4" x2="1431.5" y2="586.4"/>
	</g>
</g>
<polyline class="st1" points="1544.8,429.9 1544.8,471.2 1546.2,473.5 1492.9,473.5 "/>
<g>
	<g>
		<line class="st2" x1="1541.5" y1="228.5" x2="1541.6" y2="232.5"/>
		<line class="st16" x1="1541.7" y1="240" x2="1543.4" y2="356.7"/>
		<line class="st2" x1="1543.4" y1="360.5" x2="1543.5" y2="364.5"/>
	</g>
</g>
<g>
	<g>
		<line class="st2" x1="1541.6" y1="78.5" x2="1541.6" y2="82.5"/>
		<line class="st17" x1="1541.6" y1="89.8" x2="1541.6" y2="158.7"/>
		<line class="st2" x1="1541.6" y1="162.3" x2="1541.6" y2="166.3"/>
	</g>
</g>
<g>
	<g>
		<line class="st2" x1="1379.7" y1="895.1" x2="1383.7" y2="895.1"/>
		<line class="st18" x1="1391.9" y1="895.1" x2="1663.4" y2="895.1"/>
		<line class="st2" x1="1667.5" y1="895.1" x2="1671.5" y2="895.1"/>
	</g>
</g>
<g>
	<g>
		<line class="st2" x1="1546.2" y1="617.3" x2="1546.2" y2="621.3"/>
		<line class="st19" x1="1546.2" y1="629.1" x2="1546.2" y2="826.5"/>
		<polyline class="st2" points="1546.2,830.4 1546.2,834.4 1542.2,834.4 		"/>
		<line class="st20" x1="1533.8" y1="834.4" x2="1388" y2="834.4"/>
		<line class="st2" x1="1383.8" y1="834.4" x2="1379.8" y2="834.4"/>
	</g>
</g>
<polyline class="st1" points="1679.5,833.5 1679.5,47.5 1572.5,47.5 "/>
</svg>
