<?xml version="1.0" encoding="UTF-8" standalone="no"?>
<svg width="1703px" height="885px" viewBox="0 0 1703 885" version="1.1" xmlns="http://www.w3.org/2000/svg" xmlns:xlink="http://www.w3.org/1999/xlink" xmlns:sketch="http://www.bohemiancoding.com/sketch/ns">
    <!-- Generator: Sketch 3.4.4 (17248) - http://www.bohemiancoding.com/sketch -->
    <title>Slice 1</title>
    <desc>Created with Sketch.</desc>
    <defs></defs>
    <g id="Page-1" stroke="none" stroke-width="1" fill="none" fill-rule="evenodd" sketch:type="MSPage">
        <g id="map_fixed" sketch:type="MSLayerGroup" transform="translate(2.000000, 2.000000)">
            <circle id="Oval" stroke="#010101" stroke-width="4" sketch:type="MSShapeGroup" cx="31.1" cy="31.4" r="30.7"></circle>
            <circle id="Oval" stroke="#010101" stroke-width="4" sketch:type="MSShapeGroup" cx="162.9" cy="210.2" r="30.7"></circle>
            <circle id="Oval" stroke="#010101" stroke-width="4" sketch:type="MSShapeGroup" cx="165.2" cy="336.8" r="30.7"></circle>
            <circle id="Oval" stroke="#010101" stroke-width="4" sketch:type="MSShapeGroup" cx="253.9" cy="451" r="30.7"></circle>
            <circle id="Oval" stroke="#010101" stroke-width="4" sketch:type="MSShapeGroup" cx="284.6" cy="570.6" r="30.7"></circle>
            <circle id="Oval" stroke="#010101" stroke-width="4" sketch:type="MSShapeGroup" cx="492.1" cy="570.6" r="30.7"></circle>
            <circle id="Oval" stroke="#010101" stroke-width="4" sketch:type="MSShapeGroup" cx="779.5" cy="570.6" r="30.7"></circle>
            <circle id="Oval" stroke="#010101" stroke-width="4" sketch:type="MSShapeGroup" cx="922" cy="455.2" r="30.7"></circle>
            <circle id="Oval" stroke="#010101" stroke-width="4" sketch:type="MSShapeGroup" cx="1032.7" cy="453.8" r="30.7"></circle>
            <circle id="Oval" stroke="#010101" stroke-width="4" sketch:type="MSShapeGroup" cx="1532.4" cy="570.6" r="30.7"></circle>
            <circle id="Oval" stroke="#010101" stroke-width="4" sketch:type="MSShapeGroup" cx="1450.2" cy="455.2" r="30.7"></circle>
            <circle id="Oval" stroke="#010101" stroke-width="4" sketch:type="MSShapeGroup" cx="1388.7" cy="570.6" r="30.7"></circle>
            <circle id="Oval" stroke="#010101" stroke-width="4" sketch:type="MSShapeGroup" cx="1667.7" cy="848.4" r="30.7"></circle>
            <circle id="Oval" stroke="#010101" stroke-width="4" sketch:type="MSShapeGroup" cx="1358" cy="849.1" r="30.7"></circle>
            <circle id="Oval" stroke="#010101" stroke-width="4" sketch:type="MSShapeGroup" cx="1532.4" cy="381.2" r="30.7"></circle>
            <circle id="Oval" stroke="#010101" stroke-width="4" sketch:type="MSShapeGroup" cx="1529.6" cy="181.5" r="30.7"></circle>
            <circle id="Oval" stroke="#010101" stroke-width="4" sketch:type="MSShapeGroup" cx="1529.6" cy="31.4" r="30.7"></circle>
            <path d="M61.9,31.4 L164.5,31.4" id="Shape" stroke="#010101" stroke-width="5" stroke-dasharray="8,8" sketch:type="MSShapeGroup"></path>
            <g id="Group" transform="translate(162.000000, 29.000000)" stroke="#010101" stroke-width="5" sketch:type="MSShapeGroup">
                <path d="M1.4,150.5 L1.3,146.5" id="Shape"></path>
                <path d="M1.3,138.1 L0.4,8.7" id="Shape" stroke-dasharray="8.353199999999999,8.353199999999999"></path>
                <path d="M0.4,4.5 L0.4,0.5" id="Shape"></path>
            </g>
            <g id="Group" transform="translate(162.000000, 240.000000)" stroke="#010101" stroke-width="5" sketch:type="MSShapeGroup">
                <path d="M0,66.5 L0.1,62.5" id="Shape"></path>
                <path d="M0.3,54.3 L1.5,9" id="Shape" stroke-dasharray="8.2285,8.2285"></path>
                <path d="M1.6,4.9 L1.7,0.9" id="Shape"></path>
            </g>
            <g id="Group" transform="translate(160.000000, 455.000000)" stroke="#010101" stroke-width="5" sketch:type="MSShapeGroup">
                <path d="M63.5,0.5 L59.5,0.5" id="Shape"></path>
                <path d="M51.6,0.5 L8.4,0.5" id="Shape" stroke-dasharray="7.8571,7.8571"></path>
                <path d="M4.5,0.5 L0.5,0.5" id="Shape"></path>
            </g>
            <path d="M162.9,458.3 L162.9,370.5" id="Shape" stroke="#010101" stroke-width="5" stroke-dasharray="8,8" sketch:type="MSShapeGroup"></path>
            <g id="Group" transform="translate(284.000000, 456.000000)" stroke="#010101" stroke-width="5" sketch:type="MSShapeGroup">
                <path d="M0.6,83.5 L0.6,79.5" id="Shape"></path>
                <path d="M0.6,71.2 L0.6,9" id="Shape" stroke-dasharray="8.294499999999999,8.294499999999999"></path>
                <path d="M0.6,4.8 L0.6,0.8" id="Shape"></path>
            </g>
            <g id="Group" transform="translate(315.000000, 570.000000)" stroke="#010101" stroke-width="5" sketch:type="MSShapeGroup">
                <path d="M146.5,0.6 L142.5,0.6" id="Shape"></path>
                <path d="M134.4,0.6 L8.4,0.6" id="Shape" stroke-dasharray="8.125500000000001,8.125500000000001"></path>
                <path d="M4.4,0.6 L0.4,0.6" id="Shape"></path>
            </g>
            <g id="Group" transform="translate(522.000000, 570.000000)" stroke="#010101" stroke-width="5" sketch:type="MSShapeGroup">
                <path d="M226.5,0.6 L222.5,0.6" id="Shape"></path>
                <path d="M214.4,0.6 L8.8,0.6" id="Shape" stroke-dasharray="8.0634,8.0634"></path>
                <path d="M4.8,0.6 L0.8,0.6" id="Shape"></path>
            </g>
            <g id="Group" transform="translate(811.000000, 486.000000)" stroke="#010101" stroke-width="5" sketch:type="MSShapeGroup">
                <path d="M114.4,0 L114.4,4" id="Shape"></path>
                <path d="M114.4,12.5 L114.3,76.2" id="Shape" stroke-dasharray="8.4971,8.4971"></path>
                <path d="M114.3,80.4 L114.3,84.4 L110.3,84.4" id="Shape"></path>
                <path d="M102.2,84.5 L9,84.6" id="Shape" stroke-dasharray="8.1036,8.1036"></path>
                <path d="M4.9,84.6 L0.9,84.6" id="Shape"></path>
            </g>
            <g id="Group" transform="translate(954.000000, 454.000000)" stroke="#010101" stroke-width="5" sketch:type="MSShapeGroup">
                <path d="M46.5,1.5 L42.5,1.4" id="Shape"></path>
                <path d="M34.9,1.3 L8.5,0.9" id="Shape" stroke-dasharray="7.5581,7.5581"></path>
                <path d="M4.7,0.8 L0.7,0.8" id="Shape"></path>
            </g>
            <g id="Group" transform="translate(1039.000000, 485.000000)" stroke="#010101" stroke-width="5" sketch:type="MSShapeGroup">
                <path d="M0.7,0.2 L0.7,4.2" id="Shape"></path>
                <path d="M0.7,12.8 L0.7,76.9" id="Shape" stroke-dasharray="8.547599999999999,8.547599999999999"></path>
                <path d="M0.7,81.1 L0.7,85 L0.7,85.1 L4.7,85.1" id="Shape"></path>
                <path d="M12.7,85.1 L310.6,85.1" id="Shape" stroke-dasharray="7.9457,7.9457"></path>
                <path d="M314.6,85.1 L318.6,85.1" id="Shape"></path>
            </g>
            <g id="Group" transform="translate(1419.000000, 486.000000)" stroke="#010101" stroke-width="5" sketch:type="MSShapeGroup">
                <path d="M33.3,0 L33.3,4" id="Shape"></path>
                <path d="M33.3,12.5 L33.3,76.2" id="Shape" stroke-dasharray="8.492699999999999,8.492699999999999"></path>
                <path d="M33.3,80.4 L33.3,84.4 L29.3,84.4" id="Shape"></path>
                <path d="M21,84.4 L8.6,84.4" id="Shape" stroke-dasharray="8.261200000000001,8.261200000000001"></path>
                <path d="M4.5,84.4 L0.5,84.4" id="Shape"></path>
            </g>
            <path d="M1532.8,413.9 L1532.8,455.2 L1534.2,457.5 L1480.9,457.5" id="Shape" stroke="#010101" stroke-width="5" stroke-dasharray="8,8" sketch:type="MSShapeGroup"></path>
            <g id="Group" transform="translate(1529.000000, 212.000000)" stroke="#010101" stroke-width="5" sketch:type="MSShapeGroup">
                <path d="M0.5,0.5 L0.6,4.5" id="Shape"></path>
                <path d="M0.7,12 L2.4,128.7" id="Shape" stroke-dasharray="7.5303,7.5303"></path>
                <path d="M2.4,132.5 L2.5,136.5" id="Shape"></path>
            </g>
            <g id="Group" transform="translate(1529.000000, 62.000000)" stroke="#010101" stroke-width="5" sketch:type="MSShapeGroup">
                <path d="M0.6,0.5 L0.6,4.5" id="Shape"></path>
                <path d="M0.6,11.8 L0.6,80.7" id="Shape" stroke-dasharray="7.2548,7.2548"></path>
                <path d="M0.6,84.3 L0.6,88.3" id="Shape"></path>
            </g>
            <g id="Group" transform="translate(1367.000000, 879.000000)" stroke="#010101" stroke-width="5" sketch:type="MSShapeGroup">
                <path d="M0.7,0.1 L4.7,0.1" id="Shape"></path>
                <path d="M12.9,0.1 L284.4,0.1" id="Shape" stroke-dasharray="8.107200000000001,8.107200000000001"></path>
                <path d="M288.5,0.1 L292.5,0.1" id="Shape"></path>
            </g>
            <g id="Group" transform="translate(1367.000000, 601.000000)" stroke="#010101" stroke-width="5" sketch:type="MSShapeGroup">
                <path d="M167.2,0.3 L167.2,4.3" id="Shape"></path>
                <path d="M167.2,12.1 L167.2,209.5" id="Shape" stroke-dasharray="7.7416,7.7416"></path>
                <path d="M167.2,213.4 L167.2,217.4 L163.2,217.4" id="Shape"></path>
                <path d="M154.8,217.4 L9,217.4" id="Shape" stroke-dasharray="8.335599999999999,8.335599999999999"></path>
                <path d="M4.8,217.4 L0.8,217.4" id="Shape"></path>
            </g>
            <path d="M1667.5,817.5 L1667.5,31.5 L1560.5,31.5" id="Shape" stroke="#010101" stroke-width="5" stroke-dasharray="8,8" sketch:type="MSShapeGroup"></path>
            <circle id="Oval-18" stroke="#090909" fill="#000000" sketch:type="MSShapeGroup" cx="492" cy="571" r="33"></circle>
        </g>
    </g>
</svg>