<?xml version="1.0" encoding="utf-8"?>
<!-- Generator: Adobe Illustrator 17.1.0, SVG Export Plug-In . SVG Version: 6.00 Build 0)  -->
<!DOCTYPE svg PUBLIC "-//W3C//DTD SVG 1.1//EN" "http://www.w3.org/Graphics/SVG/1.1/DTD/svg11.dtd">
<svg version="1.1" id="Layer_1" xmlns="http://www.w3.org/2000/svg" xmlns:xlink="http://www.w3.org/1999/xlink" x="0px" y="0px"
	 viewBox="0 0 595.3 841.9" enable-background="new 0 0 595.3 841.9" xml:space="preserve">
<circle fill="none" stroke="#010101" stroke-width="4" stroke-miterlimit="10" cx="14.9" cy="280.2" r="10.6"/>
<circle fill="none" stroke="#010101" stroke-width="4" stroke-miterlimit="10" cx="60.5" cy="342.1" r="10.6"/>
<circle fill="none" stroke="#010101" stroke-width="4" stroke-miterlimit="10" cx="61.3" cy="385.9" r="10.6"/>
<circle fill="none" stroke="#010101" stroke-width="4" stroke-miterlimit="10" cx="92" cy="425.4" r="10.6"/>
<circle fill="none" stroke="#010101" stroke-width="4" stroke-miterlimit="10" cx="102.7" cy="466.8" r="10.6"/>
<circle fill="none" stroke="#010101" stroke-width="4" stroke-miterlimit="10" cx="174.5" cy="466.8" r="10.6"/>
<circle fill="none" stroke="#010101" stroke-width="4" stroke-miterlimit="10" cx="273.9" cy="466.8" r="10.6"/>
<circle fill="none" stroke="#010101" stroke-width="4" stroke-miterlimit="10" cx="323.3" cy="426.9" r="10.6"/>
<circle fill="none" stroke="#010101" stroke-width="4" stroke-miterlimit="10" cx="361.6" cy="426.4" r="10.6"/>
<circle fill="none" stroke="#010101" stroke-width="4" stroke-miterlimit="10" cx="534.5" cy="466.8" r="10.6"/>
<circle fill="none" stroke="#010101" stroke-width="4" stroke-miterlimit="10" cx="506.1" cy="426.9" r="10.6"/>
<circle fill="none" stroke="#010101" stroke-width="4" stroke-miterlimit="10" cx="484.8" cy="466.8" r="10.6"/>
<circle fill="none" stroke="#010101" stroke-width="4" stroke-miterlimit="10" cx="581.3" cy="563" r="10.6"/>
<circle fill="none" stroke="#010101" stroke-width="4" stroke-miterlimit="10" cx="474.1" cy="563.2" r="10.6"/>
<circle fill="none" stroke="#010101" stroke-width="4" stroke-miterlimit="10" cx="534.5" cy="401.3" r="10.6"/>
<circle fill="none" stroke="#010101" stroke-width="4" stroke-miterlimit="10" cx="533.5" cy="332.2" r="10.6"/>
<circle fill="none" stroke="#010101" stroke-width="4" stroke-miterlimit="10" cx="533.5" cy="280.2" r="10.6"/>
<line fill="none" stroke="#010101" stroke-width="5" stroke-miterlimit="10" stroke-dasharray="8,8" x1="25.6" y1="280.2" x2="61.1" y2="280.2"/>
<g>
	<g>
		<line fill="none" stroke="#010101" stroke-width="5" stroke-miterlimit="10" x1="60.7" y1="331.5" x2="60.7" y2="330.1"/>
		
			<line fill="none" stroke="#010101" stroke-width="5" stroke-miterlimit="10" stroke-dasharray="8.3532,8.3532" x1="60.7" y1="327.2" x2="60.4" y2="282.4"/>
		<line fill="none" stroke="#010101" stroke-width="5" stroke-miterlimit="10" x1="60.4" y1="281" x2="60.4" y2="279.6"/>
	</g>
</g>
<g>
	<g>
		<line fill="none" stroke="#010101" stroke-width="5" stroke-miterlimit="10" x1="60.2" y1="375.4" x2="60.3" y2="374"/>
		
			<line fill="none" stroke="#010101" stroke-width="5" stroke-miterlimit="10" stroke-dasharray="8.2285,8.2285" x1="60.3" y1="371.2" x2="60.7" y2="355.5"/>
		<line fill="none" stroke="#010101" stroke-width="5" stroke-miterlimit="10" x1="60.8" y1="354.1" x2="60.8" y2="352.7"/>
	</g>
</g>
<g>
	<g>
		<line fill="none" stroke="#010101" stroke-width="5" stroke-miterlimit="10" x1="81.5" y1="427" x2="80.1" y2="427"/>
		
			<line fill="none" stroke="#010101" stroke-width="5" stroke-miterlimit="10" stroke-dasharray="7.8571,7.8571" x1="77.4" y1="427" x2="62.4" y2="427"/>
		<line fill="none" stroke="#010101" stroke-width="5" stroke-miterlimit="10" x1="61.1" y1="427" x2="59.7" y2="427"/>
	</g>
</g>
<line fill="none" stroke="#010101" stroke-width="5" stroke-miterlimit="10" stroke-dasharray="8,8" x1="60.5" y1="428" x2="60.5" y2="397.6"/>
<g>
	<g>
		<line fill="none" stroke="#010101" stroke-width="5" stroke-miterlimit="10" x1="102.7" y1="456.1" x2="102.7" y2="454.7"/>
		
			<line fill="none" stroke="#010101" stroke-width="5" stroke-miterlimit="10" stroke-dasharray="8.2945,8.2945" x1="102.7" y1="451.8" x2="102.7" y2="430.3"/>
		<line fill="none" stroke="#010101" stroke-width="5" stroke-miterlimit="10" x1="102.7" y1="428.8" x2="102.7" y2="427.5"/>
	</g>
</g>
<g>
	<g>
		<line fill="none" stroke="#010101" stroke-width="5" stroke-miterlimit="10" x1="163.9" y1="466.8" x2="162.5" y2="466.8"/>
		
			<line fill="none" stroke="#010101" stroke-width="5" stroke-miterlimit="10" stroke-dasharray="8.1255,8.1255" x1="159.7" y1="466.8" x2="116.1" y2="466.8"/>
		<line fill="none" stroke="#010101" stroke-width="5" stroke-miterlimit="10" x1="114.7" y1="466.8" x2="113.3" y2="466.8"/>
	</g>
</g>
<g>
	<g>
		<line fill="none" stroke="#010101" stroke-width="5" stroke-miterlimit="10" x1="263.2" y1="466.8" x2="261.8" y2="466.8"/>
		
			<line fill="none" stroke="#010101" stroke-width="5" stroke-miterlimit="10" stroke-dasharray="8.0634,8.0634" x1="259" y1="466.8" x2="187.9" y2="466.8"/>
		<line fill="none" stroke="#010101" stroke-width="5" stroke-miterlimit="10" x1="186.5" y1="466.8" x2="185.1" y2="466.8"/>
	</g>
</g>
<g>
	<g>
		<line fill="none" stroke="#010101" stroke-width="5" stroke-miterlimit="10" x1="324.4" y1="437.6" x2="324.4" y2="438.9"/>
		
			<line fill="none" stroke="#010101" stroke-width="5" stroke-miterlimit="10" stroke-dasharray="8.4971,8.4971" x1="324.4" y1="441.9" x2="324.4" y2="463.9"/>
		<polyline fill="none" stroke="#010101" stroke-width="5" stroke-miterlimit="10" points="324.4,465.4 324.4,466.8 323,466.8 		"/>
		
			<line fill="none" stroke="#010101" stroke-width="5" stroke-miterlimit="10" stroke-dasharray="8.1036,8.1036" x1="320.2" y1="466.8" x2="287.9" y2="466.8"/>
		<line fill="none" stroke="#010101" stroke-width="5" stroke-miterlimit="10" x1="286.5" y1="466.8" x2="285.1" y2="466.8"/>
	</g>
</g>
<g>
	<g>
		<line fill="none" stroke="#010101" stroke-width="5" stroke-miterlimit="10" x1="350.4" y1="427" x2="349" y2="427"/>
		
			<line fill="none" stroke="#010101" stroke-width="5" stroke-miterlimit="10" stroke-dasharray="7.5581,7.5581" x1="346.4" y1="426.9" x2="337.3" y2="426.8"/>
		<line fill="none" stroke="#010101" stroke-width="5" stroke-miterlimit="10" x1="336" y1="426.8" x2="334.6" y2="426.8"/>
	</g>
</g>
<g>
	<g>
		<line fill="none" stroke="#010101" stroke-width="5" stroke-miterlimit="10" x1="364" y1="437.3" x2="364" y2="438.7"/>
		
			<line fill="none" stroke="#010101" stroke-width="5" stroke-miterlimit="10" stroke-dasharray="8.5476,8.5476" x1="364" y1="441.6" x2="364" y2="463.8"/>
		<polyline fill="none" stroke="#010101" stroke-width="5" stroke-miterlimit="10" points="364,465.3 364,466.6 364,466.7 
			365.4,466.7 		"/>
		
			<line fill="none" stroke="#010101" stroke-width="5" stroke-miterlimit="10" stroke-dasharray="7.9457,7.9457" x1="368.1" y1="466.7" x2="471.2" y2="466.7"/>
		<line fill="none" stroke="#010101" stroke-width="5" stroke-miterlimit="10" x1="472.6" y1="466.7" x2="474" y2="466.7"/>
	</g>
</g>
<g>
	<g>
		<line fill="none" stroke="#010101" stroke-width="5" stroke-miterlimit="10" x1="506.8" y1="437.6" x2="506.8" y2="438.9"/>
		
			<line fill="none" stroke="#010101" stroke-width="5" stroke-miterlimit="10" stroke-dasharray="8.4927,8.4927" x1="506.8" y1="441.9" x2="506.8" y2="463.9"/>
		<polyline fill="none" stroke="#010101" stroke-width="5" stroke-miterlimit="10" points="506.8,465.4 506.8,466.8 505.4,466.8 		
			"/>
		
			<line fill="none" stroke="#010101" stroke-width="5" stroke-miterlimit="10" stroke-dasharray="8.2612,8.2612" x1="502.5" y1="466.8" x2="498.2" y2="466.8"/>
		<line fill="none" stroke="#010101" stroke-width="5" stroke-miterlimit="10" x1="496.8" y1="466.8" x2="495.4" y2="466.8"/>
	</g>
</g>
<polyline fill="none" stroke="#010101" stroke-width="5" stroke-miterlimit="10" stroke-dasharray="8,8" points="534.6,412.6 
	534.6,426.9 535.1,427.7 516.7,427.7 "/>
<g>
	<g>
		<line fill="none" stroke="#010101" stroke-width="5" stroke-miterlimit="10" x1="533.5" y1="342.9" x2="533.5" y2="344.3"/>
		
			<line fill="none" stroke="#010101" stroke-width="5" stroke-miterlimit="10" stroke-dasharray="7.5303,7.5303" x1="533.6" y1="346.9" x2="534.2" y2="387.3"/>
		<line fill="none" stroke="#010101" stroke-width="5" stroke-miterlimit="10" x1="534.2" y1="388.6" x2="534.2" y2="390"/>
	</g>
</g>
<g>
	<g>
		<line fill="none" stroke="#010101" stroke-width="5" stroke-miterlimit="10" x1="533.5" y1="291" x2="533.5" y2="292.4"/>
		
			<line fill="none" stroke="#010101" stroke-width="5" stroke-miterlimit="10" stroke-dasharray="7.2548,7.2548" x1="533.5" y1="294.9" x2="533.5" y2="318.7"/>
		<line fill="none" stroke="#010101" stroke-width="5" stroke-miterlimit="10" x1="533.5" y1="320" x2="533.5" y2="321.4"/>
	</g>
</g>
<g>
	<g>
		<line fill="none" stroke="#010101" stroke-width="5" stroke-miterlimit="10" x1="477.5" y1="573.6" x2="478.9" y2="573.6"/>
		
			<line fill="none" stroke="#010101" stroke-width="5" stroke-miterlimit="10" stroke-dasharray="8.1072,8.1072" x1="481.7" y1="573.6" x2="575.7" y2="573.6"/>
		<line fill="none" stroke="#010101" stroke-width="5" stroke-miterlimit="10" x1="577.1" y1="573.6" x2="578.5" y2="573.6"/>
	</g>
</g>
<g>
	<g>
		<line fill="none" stroke="#010101" stroke-width="5" stroke-miterlimit="10" x1="535.1" y1="477.5" x2="535.1" y2="478.8"/>
		
			<line fill="none" stroke="#010101" stroke-width="5" stroke-miterlimit="10" stroke-dasharray="7.7416,7.7416" x1="535.1" y1="481.5" x2="535.1" y2="549.9"/>
		<polyline fill="none" stroke="#010101" stroke-width="5" stroke-miterlimit="10" points="535.1,551.2 535.1,552.6 533.7,552.6 		
			"/>
		
			<line fill="none" stroke="#010101" stroke-width="5" stroke-miterlimit="10" stroke-dasharray="8.3356,8.3356" x1="530.8" y1="552.6" x2="480.4" y2="552.6"/>
		<line fill="none" stroke="#010101" stroke-width="5" stroke-miterlimit="10" x1="478.9" y1="552.6" x2="477.5" y2="552.6"/>
	</g>
</g>
<polyline fill="none" stroke="#010101" stroke-width="5" stroke-miterlimit="10" stroke-dasharray="8,8" points="581.3,552.3 
	581.3,280.3 544.2,280.3 "/>
</svg>
