<?xml version="1.0" encoding="utf-8"?>
<!-- Generator: Adobe Illustrator 17.1.0, SVG Export Plug-In . SVG Version: 6.00 Build 0)  -->
<!DOCTYPE svg PUBLIC "-//W3C//DTD SVG 1.1//EN" "http://www.w3.org/Graphics/SVG/1.1/DTD/svg11.dtd">
<svg version="1.1" id="Layer_1" xmlns="http://www.w3.org/2000/svg" xmlns:xlink="http://www.w3.org/1999/xlink" x="0px" y="0px"
	 viewBox="9.4 283.2 593.7 565.3" enable-background="new 9.4 283.2 593.7 565.3" xml:space="preserve">
<g>
	<path fill="#010101" stroke="#010101" stroke-miterlimit="10" d="M576.1,795.5c-67.8-75.4-124.3-97.8-170.7-92.8
		c-94.2,10-116.3,129.5-218.5,140.5c-69.4,7.4-151.7-42.2-172.7-91c116.1,54.2,470.4-103.8,470.4-103.8"/>
	<path fill="#010101" stroke="#010101" stroke-miterlimit="10" d="M161.7,723l38.2-107.1L218.5,421l82-121.5l32-13.6
		c-31.4,96.4-22.6,156.5,5,194.3c55.8,76.6,170.3,36,230.9,118.9c41.2,56.2,39.4,152.5,7.6,195.1c-11-127.7-325.2-355.6-325.2-355.6
		"/>
	<path fill="#010101" stroke="#010101" stroke-miterlimit="10" d="M128.9,728.2l53.4-39.4l18.8-90.8l-1.2-74.2l25.6-149.5l23.6-10
		l44.8,45.4l22.4,53.4l51.6,56L516,629.8l47.8,69.6l11.6,95l-71.8-75.6l-59.2-30.6L365,703.6L226.7,779L98.8,791l-52.2-14.4
		l-33.2-26.2c99.2-21.2,146.9-58.8,165.7-101.4c38.4-86.6-54-165.5-12.4-259.3c28.2-63.8,112.3-110.3,165.1-104
		c-105,73.2-145.3,459.4-145.3,459.4"/>
</g>
</svg>
